<svg width="53" height="53" viewBox="0 0 53 53" fill="none" xmlns="http://www.w3.org/2000/svg">
<path d="M31.1147 50.993L21.9121 41.7797L41.68 21.8101L51.0521 31.18L31.1147 50.993Z" fill="#8AB4F8"/>
<path d="M31.1813 11.3135L21.8113 1.94141L1.94251 21.8102C-0.645713 24.3963 -0.647859 28.5876 1.93822 31.1759C1.94036 31.178 1.94251 31.1802 1.94251 31.1802L21.8113 51.0489L31.0031 41.8142L15.9889 26.508L31.1813 11.3135Z" fill="#4285F4"/>
<path d="M51.0502 21.81L31.1814 1.94117C28.5932 -0.647055 24.3976 -0.647055 21.8093 1.94117C19.2211 4.52939 19.2211 8.72505 21.8093 11.3111L41.6888 31.1799C44.2771 33.7681 48.4727 33.7681 51.0588 31.1799C53.647 28.5917 53.647 24.396 51.0588 21.81H51.0502Z" fill="#8AB4F8"/>
<path d="M26.4236 53.0083C30.0505 53.0083 32.9907 50.0681 32.9907 46.4412C32.9907 42.8142 30.0505 39.874 26.4236 39.874C22.7966 39.874 19.8564 42.8142 19.8564 46.4412C19.8564 50.0681 22.7966 53.0083 26.4236 53.0083Z" fill="#246FDB"/>
</svg>
