<svg width="124" height="62" viewBox="0 0 124 62" fill="none" xmlns="http://www.w3.org/2000/svg">
<g clip-path="url(#clip0_84_17)">
<mask id="mask0_84_17" style="mask-type:luminance" maskUnits="userSpaceOnUse" x="7" y="9" width="47" height="58">
<path d="M7.61328 9.2124H53.3235V66.1998H7.61328V9.2124Z" fill="white"/>
</mask>
<g mask="url(#mask0_84_17)">
<path d="M23.263 14.4247C23.7003 13.2769 24.3015 12.2203 25.1942 11.364C28.765 7.88427 34.6678 8.75875 37.0909 13.1312C38.9127 16.447 40.8439 19.6899 42.7204 22.9692L52.1211 39.3294C54.7264 43.9022 51.9025 49.6775 46.7285 50.4609C43.5584 50.9346 40.5888 49.4771 38.9492 46.635L30.678 32.2788C30.6233 32.1695 30.5504 32.0784 30.4776 31.9873C30.1861 31.7505 30.0585 31.4043 29.8763 31.0946L23.7914 20.5461C23.0808 19.3073 22.7529 17.9591 22.7894 16.5381C22.844 15.8093 22.9351 15.0806 23.263 14.4247Z" fill="#3C8BD9"/>
<path d="M23.2627 14.4238C23.0988 15.0797 22.953 15.7356 22.9166 16.4279C22.8619 17.9582 23.2445 19.3793 24.0097 20.7092L30.0036 31.0755C30.1857 31.3852 30.3315 31.695 30.5137 31.9865L27.2161 37.6524L22.6069 45.5957C22.534 45.5957 22.5158 45.5592 22.4975 45.5046C22.4793 45.3588 22.534 45.2313 22.5704 45.0856C23.3174 42.3528 22.6979 39.9297 20.8214 37.8528C19.6737 36.5957 18.2162 35.8852 16.5401 35.6484C14.3539 35.3387 12.4227 35.9034 10.692 37.2698C10.3822 37.5067 10.1818 37.8528 9.81747 38.035C9.7446 38.035 9.70816 37.9986 9.68994 37.9439L12.2952 33.4075L23.1352 14.6242C23.1716 14.5514 23.2263 14.4967 23.2627 14.4238Z" fill="#FABC04"/>
<path d="M9.76297 37.9975L10.8014 37.0684C15.2285 33.5704 21.8783 36.1028 22.8439 41.6412C23.0807 42.9712 22.9532 44.2465 22.5524 45.5218C22.5341 45.6311 22.5159 45.7222 22.4795 45.8315C22.3155 46.123 22.1698 46.4327 21.9876 46.7242C20.3661 49.4023 17.9795 50.7323 14.8459 50.5319C11.2569 50.2768 8.43302 47.5805 7.94112 44.0096C7.70428 42.2789 8.05043 40.6574 8.94314 39.1635C9.12533 38.8356 9.34395 38.5441 9.54435 38.2162C9.63544 38.1433 9.59901 37.9975 9.76297 37.9975Z" fill="#34A852"/>
<path d="M9.76378 37.9982C9.69091 38.071 9.69091 38.1986 9.56338 38.2168C9.54516 38.0893 9.61803 38.0164 9.69091 37.9253L9.76378 37.9982Z" fill="#FABC04"/>
<path d="M22.4794 45.8327C22.4065 45.7051 22.4794 45.614 22.5523 45.5229L22.6252 45.5958L22.4794 45.8327Z" fill="#E1C025"/>
</g>
<mask id="mask1_84_17" style="mask-type:luminance" maskUnits="userSpaceOnUse" x="51" y="-95" width="105" height="130">
<path d="M51.7891 -94.8721H155.646V34.607H51.7891V-94.8721Z" fill="white"/>
</mask>
<g mask="url(#mask1_84_17)">
<path d="M60.3575 12.9165C55.6801 12.9165 51.7891 16.6833 51.7891 21.3194C51.7891 25.9555 55.6801 29.6809 60.3575 29.6809C62.8825 29.6809 64.7453 28.853 66.2354 27.3215C67.767 25.7899 68.2223 23.6788 68.2223 21.9817C68.2223 21.4436 68.1809 20.9469 68.0981 20.5329H60.3575V22.8096H65.8629C65.6973 24.0928 65.2834 25.0448 64.6211 25.7071C63.8346 26.4936 62.5514 27.4043 60.3575 27.4043C56.9633 27.4043 54.3141 24.6723 54.3141 21.3194C54.3141 17.9665 56.9633 15.2345 60.3575 15.2345C62.1789 15.2345 63.5448 15.9382 64.4969 16.8903L66.1112 15.2759C64.7453 13.9513 62.9239 12.9165 60.3575 12.9165ZM74.39 18.9186C71.451 18.9186 69.0088 21.1952 69.0088 24.3825C69.0088 27.5284 71.4096 29.8465 74.39 29.8465C77.3703 29.8465 79.7711 27.5284 79.7711 24.3825C79.7711 21.2366 77.3289 18.9186 74.39 18.9186ZM74.39 27.694C72.7756 27.694 71.3682 26.328 71.3682 24.3825C71.3682 22.437 72.7756 21.071 74.39 21.071C76.0043 21.071 77.4117 22.3956 77.4117 24.3825C77.4117 26.328 76.0043 27.694 74.39 27.694ZM86.0629 18.9186C83.0826 18.9186 80.6818 21.1952 80.6818 24.3825C80.6818 27.5284 83.0826 29.8465 86.0629 29.8465C89.0019 29.8465 91.4441 27.5284 91.4441 24.3825C91.4441 21.2366 89.0433 18.9186 86.0629 18.9186ZM86.0629 27.694C84.4486 27.694 83.0412 26.328 83.0412 24.3825C83.0412 22.437 84.4486 21.071 86.0629 21.071C87.6773 21.071 89.0847 22.3956 89.0847 24.3825C89.0847 26.328 87.7187 27.694 86.0629 27.694ZM97.6945 18.9186C95.004 18.9186 92.5617 21.278 92.5617 24.3411C92.5617 27.3629 95.004 29.7223 97.6945 29.7223C98.9777 29.7223 99.9712 29.1428 100.509 28.4805H100.592V29.267C100.592 31.3366 99.5159 32.4543 97.7359 32.4543C96.2872 32.4543 95.4179 31.4194 95.0453 30.5502L92.9757 31.4194C93.5552 32.8682 95.1281 34.6067 97.7359 34.6067C100.509 34.6067 102.827 32.951 102.827 28.9772V19.2911H100.592V20.1604H100.509C99.9712 19.4981 98.9777 18.9186 97.6945 18.9186ZM97.9015 27.6112C96.2872 27.6112 94.9212 26.2452 94.9212 24.3411C94.9212 22.437 96.2872 21.0296 97.9015 21.0296C99.5159 21.0296 100.758 22.437 100.758 24.3411C100.758 26.2452 99.5159 27.6112 97.9015 27.6112ZM104.566 13.5788H106.925V29.5567H104.566V13.5788ZM113.259 18.9186C110.444 18.9186 108.084 21.1124 108.084 24.3825C108.084 27.4457 110.402 29.8465 113.507 29.8465C116.032 29.8465 117.481 28.3149 118.06 27.4457L116.197 26.2038C115.577 27.1145 114.707 27.694 113.507 27.694C112.265 27.694 111.396 27.1559 110.858 26.0383L118.184 23.0165L117.936 22.3956C117.481 21.1952 116.073 18.9186 113.259 18.9186ZM110.444 24.217C110.361 22.1059 112.1 21.0296 113.3 21.0296C114.252 21.0296 115.08 21.485 115.328 22.1887L110.444 24.217Z" fill="#757575"/>
</g>
<mask id="mask2_84_17" style="mask-type:luminance" maskUnits="userSpaceOnUse" x="-4" y="-76" width="105" height="131">
<path d="M-3.17627 -75.4287H100.68V54.0504H-3.17627V-75.4287Z" fill="white"/>
</mask>
<g mask="url(#mask2_84_17)">
<path d="M67.3584 48.7518L72.8224 34.2227H74.9334L80.3974 48.7518H78.3277L76.9203 44.8194H70.8355L69.4281 48.7518H67.3584ZM71.4564 43.0809H76.2994L73.94 36.5407H73.8572L71.4564 43.0809ZM82.3015 47.5514C81.3908 46.5166 80.9355 45.2747 80.9355 43.7846C80.9355 42.3358 81.3908 41.094 82.3015 40.0178C83.2535 38.9829 84.3298 38.4862 85.6544 38.4862C86.3994 38.4862 87.0617 38.6518 87.6412 38.9415C88.2622 39.2727 88.7175 39.6452 89.0486 40.1833H89.1314L89.0486 38.8173V34.2227H90.9113V48.7518H89.1314V47.3858H89.0486C88.7175 47.8825 88.2622 48.2965 87.6412 48.6276C87.0203 48.9588 86.3581 49.0829 85.6544 49.0829C84.3298 49.0829 83.2121 48.5862 82.3015 47.5514ZM88.1794 46.3924C88.8003 45.7301 89.09 44.8608 89.09 43.7846C89.09 42.7497 88.8003 41.8805 88.1794 41.2182C87.5999 40.5559 86.8548 40.2247 85.9441 40.2247C85.0335 40.2247 84.2884 40.5559 83.7089 41.2182C83.088 41.8805 82.7982 42.7497 82.7982 43.7846C82.7982 44.8194 83.088 45.6887 83.7089 46.351C84.3298 47.0133 85.0749 47.3444 85.9441 47.3444C86.8548 47.3858 87.5999 47.0547 88.1794 46.3924ZM99.5212 48.1723C98.7761 48.7518 97.8241 49.0829 96.665 49.0829C95.6716 49.0829 94.8023 48.8346 94.0159 48.2965C93.2708 47.7584 92.7327 47.0961 92.4015 46.2268L94.0573 45.5231C94.3056 46.1026 94.6368 46.5993 95.1335 46.9305C95.5888 47.2616 96.1269 47.4272 96.665 47.4272C97.2446 47.4272 97.7413 47.303 98.1552 47.0547C98.5692 46.8063 98.7347 46.4752 98.7347 46.144C98.7347 45.5231 98.238 45.0264 97.286 44.7366L95.5888 44.3227C93.6433 43.826 92.6913 42.9153 92.6913 41.5079C92.6913 40.5973 93.0638 39.8936 93.8089 39.3141C94.554 38.776 95.506 38.4862 96.6237 38.4862C97.4644 38.4805 98.2919 38.6946 99.0245 39.1071C99.7282 39.521 100.225 40.1005 100.515 40.8042L98.8589 41.5079C98.6519 41.094 98.3622 40.7628 97.9483 40.5145C97.5343 40.2661 97.0376 40.1419 96.4995 40.1419C96.0028 40.1419 95.5888 40.2661 95.1749 40.5145C94.8023 40.7628 94.5954 41.0526 94.5954 41.4251C94.5954 42.0046 95.1335 42.4186 96.2097 42.6256L97.6999 42.9981C99.6868 43.4948 100.639 44.4883 100.639 45.9784C100.68 46.8477 100.266 47.5928 99.5212 48.1723Z" fill="#757575"/>
</g>
</g>
<defs>
<clipPath id="clip0_84_17">
<rect width="124" height="62" fill="white"/>
</clipPath>
</defs>
</svg>
