<svg width="196" height="34" viewBox="0 0 196 34" fill="none" xmlns="http://www.w3.org/2000/svg">
<path d="M116.511 12.7277L119.102 18.8511H114.082L116.511 12.7277ZM115.539 10.6865L109.871 24.0995H111.977L113.434 20.4547H119.75L121.208 24.0995H123.314L117.645 10.6865H115.54H115.539ZM146.146 24.0995H148.089V10.6865H146.146V24.0995ZM126.221 16.2263C126.869 15.3513 128.164 14.6226 129.46 14.6226C132.051 14.6226 133.347 16.2263 133.347 18.5592V24.2452H131.403V18.8505C131.403 16.955 130.27 16.2268 128.813 16.2268C127.193 16.2268 126.059 17.6849 126.059 18.9967V24.0995H124.116V14.7688H126.059L126.221 16.2268L126.221 16.2263ZM134.967 21.3297C134.967 19.2885 137.072 18.1223 139.501 18.1223C140.959 18.1223 141.931 18.4142 142.255 18.706V18.4142C142.255 16.9561 140.959 16.2268 139.664 16.2268C138.531 16.2268 137.558 16.6643 137.234 17.5392L135.458 16.8094C135.782 15.9344 137.077 14.622 139.675 14.622C142.105 14.622 144.21 15.9344 144.21 18.5587V24.099H142.428V22.7803H142.267C141.781 23.5091 140.647 24.384 138.866 24.384C136.76 24.384 134.979 23.2178 134.979 21.3223M142.267 20.1561C142.267 20.1561 141.457 19.5724 139.837 19.5724C137.894 19.5724 137.084 20.5924 137.084 21.3217C137.084 22.3417 138.217 22.7798 139.189 22.7798C140.647 22.7798 142.267 21.6136 142.267 20.1561Z" fill="#757575"/>
<path fill-rule="evenodd" clip-rule="evenodd" d="M150.837 28.1805L153.104 23.3638L149.056 14.908H150.999L154.076 21.3227L157.152 14.908H159.095L152.781 28.1805H150.838H150.837ZM179.339 17.9759C178.852 16.8086 177.719 16.0804 176.586 16.0804C174.966 16.0804 173.509 17.3928 173.509 19.2878C173.509 21.1827 174.967 22.4951 176.586 22.4951C177.719 22.4951 178.853 21.7664 179.339 20.7458L180.959 21.6207C180.149 23.2244 178.529 24.2444 176.586 24.2444C173.833 24.2444 171.566 22.0571 171.566 19.2878C171.566 16.3717 173.833 14.3306 176.586 14.3306C178.529 14.3306 180.149 15.3506 180.959 16.9542L179.339 17.9742L179.339 17.9759Z" fill="#757575"/>
<path d="M186.302 24.3907C188.893 24.3907 190.189 23.0783 190.189 21.4747C190.189 17.9755 184.52 19.2873 184.52 17.2473C184.52 16.5186 185.169 16.0811 186.302 16.0811C187.435 16.0811 188.569 16.5186 189.055 17.2473L190.188 16.2273C189.54 15.4986 187.758 14.478 186.139 14.478C183.71 14.478 182.415 15.7904 182.415 17.3941C182.415 20.7471 188.245 19.5814 188.245 21.3307C188.245 22.2057 187.596 22.7888 186.302 22.7888C185.007 22.7888 184.359 22.06 183.711 21.3307L182.253 22.3507C183.225 23.2257 184.683 24.3919 186.302 24.3919V24.3907ZM167.84 24.0989H169.783V14.7687H167.84V24.0989Z" fill="#757575"/>
<path fill-rule="evenodd" clip-rule="evenodd" d="M168.651 10.249C169.461 10.249 169.947 10.8327 169.947 11.4152C169.947 12.144 169.298 12.5814 168.651 12.5814C168.004 12.5814 167.356 11.9978 167.356 11.4152C167.356 10.8327 168.004 10.249 168.651 10.249ZM165.899 22.642L166.223 23.9544H164.28C162.498 23.9544 161.689 22.7882 161.689 21.0384V16.5186H159.746V14.7693H161.689V11.9995H163.632V14.7693H165.899V16.5186H163.632V21.3353C163.632 22.6477 164.765 22.6477 165.899 22.6477L165.899 22.642Z" fill="#757575"/>
<path fill-rule="evenodd" clip-rule="evenodd" d="M84.3906 30.661H75.0709C74.5217 30.661 73.9949 30.4646 73.6066 30.115C73.2182 29.7654 73 29.2912 73 28.7967V24.7734C73 24.2789 73.2182 23.8047 73.6066 23.4551C73.9949 23.1055 74.5217 22.909 75.0709 22.909H80.9563V17.0157C80.9563 16.5212 81.1745 16.047 81.5628 15.6974C81.9512 15.3478 82.478 15.1514 83.0272 15.1514H89.5735V30.6061H84.3962L84.3906 30.661Z" fill="#FFC517"/>
<path fill-rule="evenodd" clip-rule="evenodd" d="M96.1069 30.661H89.5605V9.86433C89.5605 9.36988 89.7787 8.89568 90.1671 8.54605C90.5555 8.19642 91.0822 8 91.6314 8H96.1006C96.3725 8 96.6418 8.04822 96.8931 8.14191C97.1443 8.23561 97.3726 8.37293 97.5649 8.54605C97.7572 8.71917 97.9098 8.92469 98.0138 9.15088C98.1179 9.37708 98.1715 9.61951 98.1715 9.86433V28.8023C98.1167 29.8325 97.1908 30.6723 96.0943 30.6723L96.1069 30.661Z" fill="#F57E02"/>
<path fill-rule="evenodd" clip-rule="evenodd" d="M98.1239 22.909V28.7964C98.1239 29.8267 97.1974 30.6608 96.0529 30.6608H89.5132V15.1572L98.1239 22.909Z" fill="url(#paint0_linear_84_5)"/>
<defs>
<linearGradient id="paint0_linear_84_5" x1="89.5418" y1="22.9092" x2="98.1321" y2="22.9092" gradientUnits="userSpaceOnUse">
<stop stop-color="#E96F0B"/>
<stop offset="1" stop-color="#F37901"/>
</linearGradient>
</defs>
</svg>
