<svg xmlns="http://www.w3.org/2000/svg" width="259" height="96" viewBox="0 0 259 96" fill="none"><path d="M258.182 2.49503L199.284 64.6757L169.298 34.1659L130.19 95.4364L98.0601 41.4784L64.1401 33.623L3.38721 94.1317L1.84814 92.5858L63.4565 31.2265L99.4575 39.5634L130.254 91.2802L168.933 30.6835L199.253 61.5331L256.599 0.995026L258.182 2.49503Z" fill="#3CA757"></path><path d="M5.23506 93.3586C5.23506 94.8042 4.06315 95.9761 2.61753 95.9761C1.17191 95.9761 0 94.8042 0 93.3586C0 91.913 1.17191 90.7411 2.61753 90.7411C4.06315 90.7411 5.23506 91.913 5.23506 93.3586Z" fill="#3CA757"></path><path d="M66.3107 32.2829C66.3107 33.7285 65.1388 34.9004 63.6932 34.9004C62.2476 34.9004 61.0757 33.7285 61.0757 32.2829C61.0757 30.8373 62.2476 29.6653 63.6932 29.6653C65.1388 29.6653 66.3107 30.8373 66.3107 32.2829Z" fill="#3CA757"></path><path d="M101.211 41.008C101.211 42.4536 100.039 43.6255 98.5936 43.6255C97.148 43.6255 95.9761 42.4536 95.9761 41.008C95.9761 39.5624 97.148 38.3904 98.5936 38.3904C100.039 38.3904 101.211 39.5624 101.211 41.008Z" fill="#3CA757"></path><path d="M132.621 93.3586C132.621 94.8042 131.449 95.9761 130.004 95.9761C128.558 95.9761 127.386 94.8042 127.386 93.3586C127.386 91.913 128.558 90.7411 130.004 90.7411C131.449 90.7411 132.621 91.913 132.621 93.3586Z" fill="#3CA757"></path><path d="M171.884 32.2829C171.884 33.7285 170.713 34.9004 169.267 34.9004C167.821 34.9004 166.649 33.7285 166.649 32.2829C166.649 30.8373 167.821 29.6653 169.267 29.6653C170.713 29.6653 171.884 30.8373 171.884 32.2829Z" fill="#3CA757"></path><path d="M202.422 62.8207C202.422 64.2663 201.25 65.4382 199.805 65.4382C198.359 65.4382 197.187 64.2663 197.187 62.8207C197.187 61.3751 198.359 60.2032 199.805 60.2032C201.25 60.2032 202.422 61.3751 202.422 62.8207Z" fill="#3CA757"></path><path d="M258.263 2.61753C258.263 4.06315 257.091 5.23506 255.645 5.23506C254.2 5.23506 253.028 4.06315 253.028 2.61753C253.028 1.17191 254.2 0 255.645 0C257.091 0 258.263 1.17191 258.263 2.61753Z" fill="#3CA757"></path></svg>