<svg xmlns="http://www.w3.org/2000/svg" xmlns:xlink="http://www.w3.org/1999/xlink" width="500" zoomAndPan="magnify" viewBox="0 0 375 374.999991" height="500" preserveAspectRatio="xMidYMid meet" version="1.0"><defs><g/><clipPath id="571c6c3f0e"><rect x="0" width="182" y="0" height="143"/></clipPath></defs><path fill="#0cc0df" d="M 95.90625 100.644531 C 43.441406 97.289062 0.0078125 140.722656 3.363281 193.1875 C 6.132812 236.554688 41.164062 271.582031 84.527344 274.355469 C 136.992188 277.710938 180.425781 234.277344 177.074219 181.8125 C 174.300781 138.445312 139.269531 103.417969 95.90625 100.644531 Z M 129.625 230.6875 C 133.050781 218.925781 135.09375 205.398438 135.367188 190.847656 L 170.472656 190.847656 C 169.703125 209.503906 162.542969 226.53125 151.125 239.804688 C 145.886719 236.136719 138.5625 233.03125 129.625 230.6875 Z M 29.3125 239.804688 C 17.894531 226.53125 10.730469 209.503906 9.960938 190.847656 L 45.066406 190.847656 C 45.339844 205.398438 47.382812 218.925781 50.808594 230.6875 C 41.871094 233.035156 34.546875 236.136719 29.3125 239.804688 Z M 50.789062 144.371094 C 47.375 156.117188 45.339844 169.625 45.066406 184.152344 L 9.960938 184.152344 C 10.726562 165.582031 17.824219 148.628906 29.148438 135.382812 C 34.476562 138.992188 41.847656 142.050781 50.789062 144.371094 Z M 86.871094 184.152344 L 51.761719 184.152344 C 52.050781 170.296875 54.109375 157.21875 57.476562 145.910156 C 66.523438 147.734375 76.558594 148.773438 86.871094 148.960938 Z M 86.871094 190.847656 L 86.871094 226.039062 C 76.535156 226.226562 66.503906 227.28125 57.488281 229.128906 C 54.113281 217.808594 52.050781 204.71875 51.761719 190.847656 Z M 93.5625 190.847656 L 128.671875 190.847656 C 128.382812 204.71875 126.320312 217.808594 122.945312 229.128906 C 113.925781 227.28125 103.894531 226.226562 93.5625 226.039062 Z M 93.5625 184.152344 L 93.5625 148.957031 C 103.875 148.773438 113.910156 147.730469 122.957031 145.90625 C 126.324219 157.21875 128.382812 170.296875 128.671875 184.152344 Z M 93.5625 142.265625 L 93.5625 107.496094 C 104.558594 109.582031 114.394531 121.792969 120.847656 139.511719 C 112.433594 141.152344 103.128906 142.085938 93.5625 142.265625 Z M 86.871094 107.496094 L 86.871094 142.265625 C 77.304688 142.085938 68 141.152344 59.585938 139.511719 C 66.039062 121.792969 75.875 109.582031 86.871094 107.496094 Z M 86.871094 232.734375 L 86.871094 267.503906 C 75.882812 265.417969 66.050781 253.222656 59.601562 235.523438 C 67.984375 233.859375 77.285156 232.914062 86.871094 232.734375 Z M 93.5625 267.503906 L 93.5625 232.734375 C 103.148438 232.914062 112.445312 233.859375 120.832031 235.523438 C 114.382812 253.222656 104.550781 265.417969 93.5625 267.503906 Z M 135.367188 184.152344 C 135.09375 169.625 133.058594 156.117188 129.644531 144.371094 C 138.585938 142.050781 145.960938 138.992188 151.285156 135.382812 C 162.609375 148.628906 169.707031 165.582031 170.472656 184.152344 Z M 146.660156 130.386719 C 141.972656 133.355469 135.414062 135.976562 127.597656 137.980469 C 123.398438 126.105469 117.695312 116.441406 110.976562 109.890625 C 124.640625 113.550781 136.878906 120.722656 146.660156 130.386719 Z M 52.835938 137.984375 C 45.019531 135.976562 38.464844 133.359375 33.777344 130.390625 C 43.554688 120.722656 55.796875 113.550781 69.460938 109.894531 C 62.738281 116.441406 57.035156 126.105469 52.835938 137.984375 Z M 33.945312 244.773438 C 38.53125 241.761719 45.039062 239.101562 52.855469 237.074219 C 57.054688 248.921875 62.75 258.566406 69.457031 265.105469 C 55.871094 261.46875 43.699219 254.351562 33.945312 244.773438 Z M 127.578125 237.074219 C 135.390625 239.101562 141.902344 241.761719 146.488281 244.773438 C 136.734375 254.355469 124.5625 261.46875 110.976562 265.105469 C 117.683594 258.566406 123.378906 248.921875 127.578125 237.074219 Z M 127.578125 237.074219 " fill-opacity="1" fill-rule="nonzero"/><g transform="matrix(1, 0, 0, 1, 193, 120)"><g clip-path="url(#571c6c3f0e)"><g fill="#0cc0df" fill-opacity="1"><g transform="translate(0.910148, 113.736536)"><g><path d="M 37.3125 -62.609375 L 37.3125 -51.09375 L 1.078125 -51.09375 L 1.078125 -62.609375 Z M 10.4375 -77.96875 L 25.0625 -77.96875 L 25.0625 -17.6875 C 25.0625 -15.457031 25.539062 -13.832031 26.5 -12.8125 C 27.46875 -11.789062 29.085938 -11.28125 31.359375 -11.28125 C 32.078125 -11.28125 33.003906 -11.335938 34.140625 -11.453125 C 35.273438 -11.566406 36.179688 -11.679688 36.859375 -11.796875 L 38.671875 -0.390625 C 37.203125 -0.015625 35.632812 0.253906 33.96875 0.421875 C 32.300781 0.597656 30.675781 0.6875 29.09375 0.6875 C 23.007812 0.6875 18.378906 -0.765625 15.203125 -3.671875 C 12.023438 -6.585938 10.4375 -10.789062 10.4375 -16.28125 Z M 10.4375 -77.96875 "/></g></g></g><g fill="#0cc0df" fill-opacity="1"><g transform="translate(40.774357, 113.736536)"><g><path d="M 34.8125 1.296875 C 28.726562 1.296875 23.425781 -0.0507812 18.90625 -2.75 C 14.394531 -5.457031 10.898438 -9.238281 8.421875 -14.09375 C 5.941406 -18.945312 4.703125 -24.609375 4.703125 -31.078125 C 4.703125 -37.546875 5.941406 -43.21875 8.421875 -48.09375 C 10.898438 -52.96875 14.394531 -56.753906 18.90625 -59.453125 C 23.425781 -62.160156 28.726562 -63.515625 34.8125 -63.515625 C 40.9375 -63.515625 46.257812 -62.160156 50.78125 -59.453125 C 55.300781 -56.753906 58.796875 -52.96875 61.265625 -48.09375 C 63.742188 -43.21875 64.984375 -37.546875 64.984375 -31.078125 C 64.984375 -24.609375 63.742188 -18.945312 61.265625 -14.09375 C 58.796875 -9.238281 55.300781 -5.457031 50.78125 -2.75 C 46.257812 -0.0507812 40.9375 1.296875 34.8125 1.296875 Z M 34.8125 -10.65625 C 38.175781 -10.65625 40.992188 -11.550781 43.265625 -13.34375 C 45.535156 -15.144531 47.242188 -17.585938 48.390625 -20.671875 C 49.546875 -23.753906 50.125 -27.222656 50.125 -31.078125 C 50.125 -35.003906 49.546875 -38.507812 48.390625 -41.59375 C 47.242188 -44.675781 45.535156 -47.101562 43.265625 -48.875 C 40.992188 -50.65625 38.175781 -51.546875 34.8125 -51.546875 C 31.488281 -51.546875 28.691406 -50.65625 26.421875 -48.875 C 24.160156 -47.101562 22.460938 -44.675781 21.328125 -41.59375 C 20.191406 -38.507812 19.625 -35.003906 19.625 -31.078125 C 19.625 -27.222656 20.191406 -23.753906 21.328125 -20.671875 C 22.460938 -17.585938 24.160156 -15.144531 26.421875 -13.34375 C 28.691406 -11.550781 31.488281 -10.65625 34.8125 -10.65625 Z M 34.8125 -10.65625 "/></g></g></g><g fill="#0cc0df" fill-opacity="1"><g transform="translate(110.465913, 113.736536)"><g><path d="M 7.484375 23.703125 L 7.484375 -62.609375 L 21.828125 -62.609375 L 21.828125 -52.5625 L 22.625 -52.5625 C 23.5 -54.226562 24.679688 -55.898438 26.171875 -57.578125 C 27.660156 -59.265625 29.585938 -60.675781 31.953125 -61.8125 C 34.316406 -62.945312 37.257812 -63.515625 40.78125 -63.515625 C 45.726562 -63.515625 50.15625 -62.25 54.0625 -59.71875 C 57.976562 -57.1875 61.078125 -53.519531 63.359375 -48.71875 C 65.648438 -43.914062 66.796875 -38.070312 66.796875 -31.1875 C 66.796875 -24.425781 65.679688 -18.632812 63.453125 -13.8125 C 61.222656 -8.988281 58.140625 -5.28125 54.203125 -2.6875 C 50.273438 -0.101562 45.78125 1.1875 40.71875 1.1875 C 37.3125 1.1875 34.425781 0.617188 32.0625 -0.515625 C 29.707031 -1.648438 27.769531 -3.054688 26.25 -4.734375 C 24.738281 -6.421875 23.550781 -8.113281 22.6875 -9.8125 L 22.109375 -9.8125 L 22.109375 23.703125 Z M 36.859375 -10.9375 C 40.078125 -10.9375 42.800781 -11.796875 45.03125 -13.515625 C 47.257812 -15.242188 48.957031 -17.640625 50.125 -20.703125 C 51.300781 -23.765625 51.890625 -27.28125 51.890625 -31.25 C 51.890625 -35.257812 51.3125 -38.773438 50.15625 -41.796875 C 49.007812 -44.816406 47.316406 -47.175781 45.078125 -48.875 C 42.847656 -50.582031 40.109375 -51.4375 36.859375 -51.4375 C 33.648438 -51.4375 30.921875 -50.601562 28.671875 -48.9375 C 26.421875 -47.269531 24.695312 -44.925781 23.5 -41.90625 C 22.3125 -38.882812 21.71875 -35.332031 21.71875 -31.25 C 21.71875 -27.195312 22.3125 -23.648438 23.5 -20.609375 C 24.695312 -17.566406 26.425781 -15.191406 28.6875 -13.484375 C 30.957031 -11.785156 33.679688 -10.9375 36.859375 -10.9375 Z M 36.859375 -10.9375 "/></g></g></g></g></g></svg>