<svg xmlns="http://www.w3.org/2000/svg" width="310" height="34" viewBox="-5 0 310 34" fill="none"><path d="M272.152 3.76045C272.816 3.76045 273.327 3.29445 273.327 2.68661V2.34218L272.2 2.41106C271.633 2.44753 271.309 2.69877 271.309 3.09589C271.309 3.49706 271.645 3.76045 272.152 3.76045ZM271.994 4.36018C271.155 4.36018 270.592 3.85365 270.592 3.09589C270.592 2.37459 271.147 1.92075 272.119 1.86402L273.327 1.79513V1.44259C273.327 0.927956 272.987 0.619988 272.403 0.619988C271.86 0.619988 271.52 0.875277 271.43 1.2886H270.75C270.798 0.559205 271.422 0 272.419 0C273.408 0 274.032 0.534891 274.032 1.3737V4.28724H273.363V3.56189H273.347C273.096 4.0441 272.561 4.36018 271.994 4.36018Z" fill="#747474"></path><path d="M276.642 3.69967C277.375 3.69967 277.865 3.09184 277.865 2.16388C277.865 1.23592 277.375 0.619988 276.642 0.619988C275.916 0.619988 275.442 1.21971 275.442 2.16388C275.442 3.10804 275.916 3.69967 276.642 3.69967ZM276.666 5.8757C275.738 5.8757 275.004 5.35297 274.887 4.63573H275.612C275.75 5.02069 276.167 5.27598 276.694 5.27598C277.424 5.27598 277.865 4.85455 277.865 4.22645V3.56189H277.849C277.59 4.01979 277.091 4.31965 276.5 4.31965C275.426 4.31965 274.721 3.47274 274.721 2.16388C274.721 0.842859 275.426 0 276.516 0C277.112 0 277.606 0.291759 277.886 0.782076H277.898V0.0729398H278.57V4.20214C278.57 5.20709 277.829 5.8757 276.666 5.8757Z" fill="#747474"></path><path d="M281.237 4.36018C280.07 4.36018 279.284 3.52137 279.284 2.18009C279.284 0.834755 280.07 0 281.237 0C282.4 0 283.186 0.834755 283.186 2.18009C283.186 3.52137 282.4 4.36018 281.237 4.36018ZM281.237 3.74019C281.982 3.74019 282.469 3.17288 282.469 2.18009C282.469 1.1873 281.982 0.619988 281.237 0.619988C280.491 0.619988 280.001 1.1873 280.001 2.18009C280.001 3.17288 280.491 3.74019 281.237 3.74019Z" fill="#747474"></path><path d="M283.899 4.28724V0.0729398H284.564V0.761815H284.58C284.718 0.295811 285.107 0 285.601 0C285.723 0 285.828 0.020261 285.885 0.0283655V0.713189C285.828 0.692928 285.678 0.672667 285.508 0.672667C284.961 0.672667 284.604 1.06573 284.604 1.66141V4.28724H283.899Z" fill="#747474"></path><path d="M287.769 3.76045C288.434 3.76045 288.944 3.29445 288.944 2.68661V2.34218L287.818 2.41106C287.25 2.44753 286.926 2.69877 286.926 3.09589C286.926 3.49706 287.262 3.76045 287.769 3.76045ZM287.611 4.36018C286.772 4.36018 286.209 3.85365 286.209 3.09589C286.209 2.37459 286.764 1.92075 287.737 1.86402L288.944 1.79513V1.44259C288.944 0.927956 288.604 0.619988 288.02 0.619988C287.477 0.619988 287.137 0.875277 287.048 1.2886H286.367C286.416 0.559205 287.04 0 288.036 0C289.025 0 289.649 0.534891 289.649 1.3737V4.28724H288.981V3.56189H288.964C288.713 4.0441 288.178 4.36018 287.611 4.36018Z" fill="#747474"></path><path d="M43.5871 15.3468L41.002 8.11635H41.9361L43.774 13.3978L44.0113 14.0946H44.0416L44.2839 13.413L46.1774 8.11635H47.1014L44.4354 15.3468H43.5871Z" fill="#747474"></path><path d="M49.3976 15.5033C48.6368 15.5033 48.004 15.2425 47.4991 14.7207C46.9975 14.199 46.7468 13.5459 46.7468 12.7616C46.7468 11.9672 46.9992 11.3142 47.5041 10.8025C48.0091 10.2875 48.6402 10.03 49.3976 10.03C50.1516 10.03 50.7811 10.2892 51.286 10.8076C51.7943 11.326 52.0484 11.9773 52.0484 12.7616C52.0484 13.5459 51.7976 14.199 51.2961 14.7207C50.7945 15.2425 50.1617 15.5033 49.3976 15.5033ZM49.3976 14.7308C49.9059 14.7308 50.3317 14.5473 50.675 14.1804C51.0218 13.8102 51.1951 13.3372 51.1951 12.7616C51.1951 12.1759 51.0201 11.7046 50.67 11.3478C50.3233 10.9877 49.8991 10.8076 49.3976 10.8076C48.8927 10.8076 48.4652 10.9877 48.1151 11.3478C47.7684 11.708 47.595 12.1793 47.595 12.7616C47.595 13.3372 47.7667 13.8102 48.11 14.1804C48.4568 14.5473 48.8859 14.7308 49.3976 14.7308Z" fill="#747474"></path><path d="M55.1709 15.5033C54.4169 15.5033 53.7925 15.2441 53.2976 14.7258C52.8062 14.2074 52.5604 13.5476 52.5604 12.7465C52.5604 11.9453 52.8095 11.2923 53.3077 10.7874C53.8059 10.2825 54.427 10.03 55.1709 10.03C55.4806 10.03 55.7701 10.0754 56.0393 10.1663C56.312 10.2572 56.5611 10.402 56.7866 10.6006C57.0122 10.7992 57.2108 11.0853 57.3824 11.4589L56.6352 11.7821C56.5005 11.5229 56.3625 11.326 56.2211 11.1913C56.0831 11.0567 55.9215 10.959 55.7364 10.8985C55.5513 10.8345 55.351 10.8025 55.1355 10.8025C54.6609 10.8025 54.2536 10.9809 53.9136 11.3377C53.5737 11.6912 53.4037 12.1608 53.4037 12.7465C53.4037 13.3288 53.572 13.8051 53.9086 14.1754C54.2452 14.5457 54.6542 14.7308 55.1355 14.7308C55.3543 14.7308 55.558 14.6988 55.7465 14.6349C55.935 14.5675 56.0966 14.4733 56.2312 14.3521C56.3659 14.2309 56.5173 14.0273 56.6856 13.7412L57.4178 14.0997C57.2124 14.48 57.0004 14.7628 56.7816 14.9479C56.5661 15.1331 56.3221 15.2711 56.0494 15.362C55.7768 15.4562 55.4839 15.5033 55.1709 15.5033Z" fill="#747474"></path><path d="M60.4167 15.5033C59.6694 15.5033 59.0534 15.2458 58.5687 14.7308C58.084 14.2158 57.8416 13.5577 57.8416 12.7566C57.8416 11.9723 58.0789 11.3226 58.5535 10.8076C59.0282 10.2892 59.6256 10.03 60.346 10.03C61.0899 10.03 61.6857 10.2538 62.1334 10.7015C62.5811 11.1492 62.805 11.7063 62.805 12.3728V12.9282H58.3415V12.2264H61.9163C61.8961 11.8191 61.7446 11.4808 61.4619 11.2115C61.1791 10.9389 60.8072 10.8025 60.346 10.8025C59.8579 10.8025 59.4607 10.9809 59.1544 11.3377C58.8481 11.6946 58.6949 12.1675 58.6949 12.7566C58.6949 13.3557 58.8632 13.8354 59.1998 14.1956C59.5398 14.5524 59.9589 14.7308 60.4571 14.7308C60.6961 14.7308 60.8997 14.6988 61.068 14.6349C61.2363 14.5709 61.3878 14.48 61.5225 14.3622C61.6605 14.2444 61.8136 14.0542 61.9819 13.7917L62.6989 14.1451C62.5172 14.512 62.3152 14.7863 62.093 14.9681C61.8742 15.1465 61.6319 15.2795 61.3659 15.367C61.1 15.4579 60.7836 15.5033 60.4167 15.5033ZM58.7151 9.30291L59.9572 7.88913H60.7651L62.0072 9.30291H61.1993L60.3763 8.3991H60.346L59.5381 9.30291H58.7151Z" fill="#747474"></path><path d="M65.3052 10.9591V10.1916H68.4256V10.9591H65.3052ZM66.2544 15.3468V9.56547C66.2544 9.08748 66.4076 8.70206 66.7139 8.4092C67.0202 8.11298 67.4107 7.96487 67.8853 7.96487C68.0166 7.96487 68.1311 7.9716 68.2287 7.98507C68.3297 7.99853 68.4239 8.01536 68.5114 8.03556C68.599 8.05576 68.6427 8.06586 68.6427 8.06586V8.86363C68.6427 8.86363 68.5973 8.85185 68.5064 8.82829C68.4189 8.80472 68.3263 8.78621 68.2287 8.77275C68.1344 8.75928 68.0301 8.75255 67.9156 8.75255C67.6834 8.75255 67.4898 8.8266 67.335 8.97471C67.1835 9.12282 67.1078 9.33321 67.1078 9.60586V15.3468H66.2544Z" fill="#747474"></path><path d="M70.5004 15.5033C69.9282 15.5033 69.462 15.3418 69.1018 15.0186C68.7416 14.6955 68.5615 14.2781 68.5615 13.7664C68.5615 13.248 68.7635 12.8323 69.1674 12.5193C69.5747 12.2062 70.0965 12.0497 70.7327 12.0497C71.0121 12.0497 71.2881 12.0817 71.5608 12.1456C71.8368 12.2096 72.0539 12.2887 72.2121 12.3829V12.0699C72.2121 11.6895 72.0775 11.3815 71.8082 11.1459C71.5422 10.9102 71.2006 10.7924 70.7832 10.7924C70.5644 10.7924 70.3776 10.8194 70.2227 10.8732C70.0712 10.9237 69.9433 10.9877 69.839 11.0651C69.738 11.1425 69.6387 11.2334 69.5411 11.3377C69.4435 11.4421 69.3946 11.4943 69.3946 11.4943L68.7483 11.0146C68.7483 11.0146 68.8123 10.9439 68.9402 10.8025C69.0715 10.6611 69.2196 10.5332 69.3845 10.4188C69.5529 10.301 69.743 10.2067 69.9551 10.136C70.1705 10.0653 70.4482 10.03 70.7882 10.03C71.4783 10.03 72.0236 10.2135 72.4242 10.5804C72.8247 10.9473 73.025 11.4455 73.025 12.0749V15.3468H72.2121V14.1047L72.51 14.5945H72.1818C72.0202 14.8671 71.7863 15.0876 71.48 15.2559C71.177 15.4209 70.8505 15.5033 70.5004 15.5033ZM70.5812 14.746C71.0323 14.746 71.416 14.5861 71.7324 14.2663C72.0522 13.9465 72.2121 13.5628 72.2121 13.1151V13.11C72.0438 12.9956 71.8401 12.9064 71.6011 12.8424C71.3622 12.7784 71.1147 12.7465 70.8589 12.7465C70.418 12.7465 70.0696 12.8323 69.8137 13.004C69.5579 13.1756 69.43 13.4332 69.43 13.7765C69.43 14.066 69.5377 14.2999 69.7531 14.4783C69.9719 14.6567 70.248 14.746 70.5812 14.746Z" fill="#747474"></path><path d="M75.7632 15.5033C75.3525 15.5033 75.0193 15.3771 74.7635 15.1246C74.5076 14.8688 74.3797 14.5204 74.3797 14.0795V8.74245H75.228V13.8775C75.228 14.167 75.2852 14.3807 75.3996 14.5187C75.5141 14.6534 75.6841 14.7207 75.9096 14.7207C75.9635 14.7207 76.0241 14.7157 76.0914 14.7056C76.1587 14.6921 76.2445 14.6685 76.3489 14.6349C76.4566 14.6012 76.5105 14.5844 76.5105 14.5844V15.3721C76.5105 15.3721 76.4633 15.3855 76.3691 15.4124C76.2782 15.4427 76.1856 15.4646 76.0914 15.4781C75.9971 15.4949 75.8877 15.5033 75.7632 15.5033ZM73.4809 10.9591V10.1916H76.4953V10.9591H73.4809Z" fill="#747474"></path><path d="M79.1694 15.5033C78.5568 15.5033 78.0855 15.3232 77.7557 14.9631C77.4258 14.6029 77.2608 14.0946 77.2608 13.4382V10.1916H78.1141V13.3069C78.1141 13.7715 78.2202 14.1249 78.4322 14.3673C78.6443 14.6096 78.9489 14.7308 79.3461 14.7308C79.7669 14.7308 80.1204 14.5709 80.4065 14.2511C80.6926 13.9313 80.8357 13.5476 80.8357 13.0999V10.1916H81.6839V15.3468H80.8761V14.2107L81.2598 14.5945H80.8458C80.6977 14.8604 80.4671 15.0792 80.154 15.2509C79.841 15.4192 79.5128 15.5033 79.1694 15.5033Z" fill="#747474"></path><path d="M82.7551 15.3468V10.1916H83.568V11.1156L83.4367 11.0196H83.5932C83.6942 10.7403 83.8878 10.5063 84.1739 10.3178C84.4634 10.1259 84.763 10.03 85.0727 10.03C85.1568 10.03 85.246 10.0367 85.3403 10.0502C85.4345 10.0637 85.517 10.0822 85.5877 10.1057C85.6617 10.1259 85.6988 10.136 85.6988 10.136V11.0348C85.6988 11.0348 85.6483 11.0196 85.5473 10.9893C85.4463 10.959 85.342 10.9372 85.2342 10.9237C85.1299 10.9102 85.0474 10.9035 84.9868 10.9035C84.6065 10.9035 84.2799 11.0533 84.0073 11.3529C83.738 11.6525 83.6033 12.016 83.6033 12.4435V15.3468H82.7551Z" fill="#747474"></path><path d="M88.4271 15.5033C87.6664 15.5033 87.0336 15.2425 86.5286 14.7207C86.0271 14.199 85.7763 13.5459 85.7763 12.7616C85.7763 11.9672 86.0288 11.3142 86.5337 10.8025C87.0386 10.2875 87.6698 10.03 88.4271 10.03C89.1812 10.03 89.8106 10.2892 90.3155 10.8076C90.8238 11.326 91.078 11.9773 91.078 12.7616C91.078 13.5459 90.8272 14.199 90.3256 14.7207C89.8241 15.2425 89.1913 15.5033 88.4271 15.5033ZM88.4271 14.7308C88.9354 14.7308 89.3612 14.5473 89.7046 14.1804C90.0513 13.8102 90.2247 13.3372 90.2247 12.7616C90.2247 12.1759 90.0496 11.7046 89.6995 11.3478C89.3528 10.9877 88.9287 10.8076 88.4271 10.8076C87.9222 10.8076 87.4947 10.9877 87.1446 11.3478C86.7979 11.708 86.6246 12.1793 86.6246 12.7616C86.6246 13.3372 86.7963 13.8102 87.1396 14.1804C87.4863 14.5473 87.9155 14.7308 88.4271 14.7308Z" fill="#747474"></path><path d="M93.7309 15.5033C93.1182 15.5033 92.647 15.3232 92.3171 14.9631C91.9872 14.6029 91.8223 14.0946 91.8223 13.4382V10.1916H92.6756V13.3069C92.6756 13.7715 92.7816 14.1249 92.9937 14.3673C93.2057 14.6096 93.5104 14.7308 93.9076 14.7308C94.3283 14.7308 94.6818 14.5709 94.9679 14.2511C95.254 13.9313 95.3971 13.5476 95.3971 13.0999V10.1916H96.2454V15.3468H95.4375V14.2107L95.8212 14.5945H95.4072C95.2591 14.8604 95.0285 15.0792 94.7155 15.2509C94.4024 15.4192 94.0742 15.5033 93.7309 15.5033Z" fill="#747474"></path><path d="M99.3827 15.3468V10.1916H100.196V11.0954L100.059 10.949H100.221C100.372 10.6864 100.605 10.4676 100.918 10.2926C101.231 10.1175 101.559 10.03 101.902 10.03C102.508 10.03 102.978 10.2084 103.311 10.5652C103.644 10.9187 103.811 11.4101 103.811 12.0396V15.3468H102.958V12.1709C102.958 11.7232 102.85 11.3832 102.634 11.1509C102.419 10.9187 102.099 10.8025 101.675 10.8025C101.268 10.8025 100.924 10.9641 100.645 11.2872C100.369 11.6104 100.231 11.9958 100.231 12.4435V15.3468H99.3827Z" fill="#747474"></path><path d="M107.205 15.5033C106.444 15.5033 105.811 15.2425 105.306 14.7207C104.805 14.199 104.554 13.5459 104.554 12.7616C104.554 11.9672 104.806 11.3142 105.311 10.8025C105.816 10.2875 106.447 10.03 107.205 10.03C107.959 10.03 108.588 10.2892 109.093 10.8076C109.601 11.326 109.855 11.9773 109.855 12.7616C109.855 13.5459 109.605 14.199 109.103 14.7207C108.602 15.2425 107.969 15.5033 107.205 15.5033ZM107.205 14.7308C107.713 14.7308 108.139 14.5473 108.482 14.1804C108.829 13.8102 109.002 13.3372 109.002 12.7616C109.002 12.1759 108.827 11.7046 108.477 11.3478C108.13 10.9877 107.706 10.8076 107.205 10.8076C106.7 10.8076 106.272 10.9877 105.922 11.3478C105.575 11.708 105.402 12.1793 105.402 12.7616C105.402 13.3372 105.574 13.8102 105.917 14.1804C106.264 14.5473 106.693 14.7308 107.205 14.7308Z" fill="#747474"></path><path d="M114.903 15.5033C114.196 15.5033 113.607 15.2458 113.136 14.7308C112.668 14.2158 112.434 13.5611 112.434 12.7667C112.434 11.9689 112.669 11.3159 113.141 10.8076C113.615 10.2959 114.204 10.0401 114.908 10.0401C115.281 10.0401 115.625 10.1276 115.938 10.3027C116.254 10.4743 116.493 10.6999 116.655 10.9792L116.675 10.9742V8.11635H117.528V15.3468H116.715V14.3976L116.811 14.5793L116.69 14.5844C116.522 14.8638 116.276 15.0876 115.953 15.2559C115.63 15.4209 115.28 15.5033 114.903 15.5033ZM114.999 14.7409C115.483 14.7409 115.891 14.5558 116.221 14.1855C116.551 13.8118 116.715 13.3372 116.715 12.7616C116.715 12.186 116.547 11.7181 116.211 11.3579C115.877 10.9944 115.473 10.8126 114.999 10.8126C114.521 10.8126 114.113 10.9944 113.777 11.3579C113.444 11.7181 113.277 12.1877 113.277 12.7667C113.277 13.3423 113.444 13.8152 113.777 14.1855C114.11 14.5558 114.517 14.7409 114.999 14.7409Z" fill="#747474"></path><path d="M118.675 15.3468V10.1916H119.523V15.3468H118.675ZM119.099 9.14134C118.941 9.14134 118.805 9.08411 118.69 8.96966C118.579 8.85521 118.523 8.71889 118.523 8.56068C118.523 8.3991 118.579 8.26446 118.69 8.15674C118.805 8.04903 118.941 7.99517 119.099 7.99517C119.264 7.99517 119.399 8.04903 119.503 8.15674C119.611 8.26446 119.665 8.3991 119.665 8.56068C119.665 8.71889 119.611 8.85521 119.503 8.96966C119.399 9.08411 119.264 9.14134 119.099 9.14134Z" fill="#747474"></path><path d="M122.316 15.5033C121.744 15.5033 121.278 15.3418 120.918 15.0186C120.557 14.6955 120.377 14.2781 120.377 13.7664C120.377 13.248 120.579 12.8323 120.983 12.5193C121.391 12.2062 121.912 12.0497 122.549 12.0497C122.828 12.0497 123.104 12.0817 123.377 12.1456C123.653 12.2096 123.87 12.2887 124.028 12.3829V12.0699C124.028 11.6895 123.893 11.3815 123.624 11.1459C123.358 10.9102 123.016 10.7924 122.599 10.7924C122.38 10.7924 122.193 10.8194 122.039 10.8732C121.887 10.9237 121.759 10.9877 121.655 11.0651C121.554 11.1425 121.455 11.2334 121.357 11.3377C121.259 11.4421 121.211 11.4943 121.211 11.4943L120.564 11.0146C120.564 11.0146 120.628 10.9439 120.756 10.8025C120.887 10.6611 121.035 10.5332 121.2 10.4188C121.369 10.301 121.559 10.2067 121.771 10.136C121.986 10.0653 122.264 10.03 122.604 10.03C123.294 10.03 123.839 10.2135 124.24 10.5804C124.641 10.9473 124.841 11.4455 124.841 12.0749V15.3468H124.028V14.1047L124.326 14.5945H123.998C123.836 14.8671 123.602 15.0876 123.296 15.2559C122.993 15.4209 122.666 15.5033 122.316 15.5033ZM122.397 14.746C122.848 14.746 123.232 14.5861 123.548 14.2663C123.868 13.9465 124.028 13.5628 124.028 13.1151V13.11C123.86 12.9956 123.656 12.9064 123.417 12.8424C123.178 12.7784 122.931 12.7465 122.675 12.7465C122.234 12.7465 121.885 12.8323 121.63 13.004C121.374 13.1756 121.246 13.4332 121.246 13.7765C121.246 14.066 121.354 14.2999 121.569 14.4783C121.788 14.6567 122.064 14.746 122.397 14.746Z" fill="#747474"></path><path d="M130.12 15.5033C129.413 15.5033 128.824 15.2458 128.353 14.7308C127.885 14.2158 127.651 13.5611 127.651 12.7667C127.651 11.9689 127.887 11.3159 128.358 10.8076C128.833 10.2959 129.422 10.0401 130.125 10.0401C130.499 10.0401 130.842 10.1276 131.155 10.3027C131.472 10.4743 131.711 10.6999 131.872 10.9792L131.893 10.9742V8.11635H132.746V15.3468H131.933V14.3976L132.029 14.5793L131.908 14.5844C131.739 14.8638 131.494 15.0876 131.17 15.2559C130.847 15.4209 130.497 15.5033 130.12 15.5033ZM130.216 14.7409C130.701 14.7409 131.108 14.5558 131.438 14.1855C131.768 13.8118 131.933 13.3372 131.933 12.7616C131.933 12.186 131.765 11.7181 131.428 11.3579C131.095 10.9944 130.691 10.8126 130.216 10.8126C129.738 10.8126 129.331 10.9944 128.994 11.3579C128.661 11.7181 128.494 12.1877 128.494 12.7667C128.494 13.3423 128.661 13.8152 128.994 14.1855C129.328 14.5558 129.735 14.7409 130.216 14.7409Z" fill="#747474"></path><path d="M136.109 15.5033C135.362 15.5033 134.746 15.2458 134.261 14.7308C133.776 14.2158 133.534 13.5577 133.534 12.7566C133.534 11.9723 133.771 11.3226 134.246 10.8076C134.72 10.2892 135.318 10.03 136.038 10.03C136.782 10.03 137.378 10.2538 137.826 10.7015C138.273 11.1492 138.497 11.7063 138.497 12.3728V12.9282H134.034V12.2264H137.609C137.588 11.8191 137.437 11.4808 137.154 11.2115C136.871 10.9389 136.499 10.8025 136.038 10.8025C135.55 10.8025 135.153 10.9809 134.847 11.3377C134.54 11.6946 134.387 12.1675 134.387 12.7566C134.387 13.3557 134.555 13.8354 134.892 14.1956C135.232 14.5524 135.651 14.7308 136.149 14.7308C136.388 14.7308 136.592 14.6988 136.76 14.6349C136.929 14.5709 137.08 14.48 137.215 14.3622C137.353 14.2444 137.506 14.0542 137.674 13.7917L138.391 14.1451C138.209 14.512 138.007 14.7863 137.785 14.9681C137.567 15.1465 137.324 15.2795 137.058 15.367C136.792 15.4579 136.476 15.5033 136.109 15.5033Z" fill="#747474"></path><path d="M141.366 15.3468V8.11635H142.214V10.949H142.245C142.393 10.6797 142.615 10.4592 142.911 10.2875C143.211 10.1158 143.536 10.03 143.886 10.03C144.495 10.03 144.964 10.2101 145.294 10.5703C145.628 10.9271 145.794 11.4168 145.794 12.0396V15.3468H144.941V12.1709C144.941 11.7333 144.832 11.3966 144.613 11.161C144.397 10.922 144.088 10.8025 143.684 10.8025C143.286 10.8025 142.941 10.9708 142.649 11.3074C142.359 11.6441 142.214 12.0312 142.214 12.4688V15.3468H141.366Z" fill="#747474"></path><path d="M149.188 15.5033C148.427 15.5033 147.794 15.2425 147.289 14.7207C146.788 14.199 146.537 13.5459 146.537 12.7616C146.537 11.9672 146.79 11.3142 147.295 10.8025C147.799 10.2875 148.431 10.03 149.188 10.03C149.942 10.03 150.571 10.2892 151.076 10.8076C151.585 11.326 151.839 11.9773 151.839 12.7616C151.839 13.5459 151.588 14.199 151.086 14.7207C150.585 15.2425 149.952 15.5033 149.188 15.5033ZM149.188 14.7308C149.696 14.7308 150.122 14.5473 150.465 14.1804C150.812 13.8102 150.986 13.3372 150.986 12.7616C150.986 12.1759 150.81 11.7046 150.46 11.3478C150.114 10.9877 149.69 10.8076 149.188 10.8076C148.683 10.8076 148.256 10.9877 147.905 11.3478C147.559 11.708 147.385 12.1793 147.385 12.7616C147.385 13.3372 147.557 13.8102 147.9 14.1804C148.247 14.5473 148.676 14.7308 149.188 14.7308Z" fill="#747474"></path><path d="M151.927 17.6745C151.85 17.6745 151.775 17.6728 151.705 17.6694C151.634 17.6661 151.565 17.6593 151.498 17.6492C151.43 17.6391 151.358 17.624 151.281 17.6038C151.203 17.5836 151.165 17.5735 151.165 17.5735V16.7858C151.165 16.7858 151.205 16.7959 151.286 16.8161C151.363 16.8397 151.43 16.8565 151.488 16.8666C151.542 16.8767 151.602 16.8851 151.669 16.8919C151.733 16.8986 151.794 16.902 151.851 16.902C152.12 16.902 152.329 16.8262 152.477 16.6747C152.625 16.5233 152.699 16.3112 152.699 16.0385V10.1916H153.553V16.0739C153.553 16.5485 153.401 16.9339 153.098 17.2302C152.799 17.5264 152.408 17.6745 151.927 17.6745ZM153.139 9.14134C152.981 9.14134 152.844 9.08411 152.73 8.96966C152.619 8.85521 152.563 8.71889 152.563 8.56068C152.563 8.3991 152.619 8.26446 152.73 8.15674C152.844 8.04903 152.981 7.99517 153.139 7.99517C153.304 7.99517 153.438 8.04903 153.543 8.15674C153.65 8.26446 153.704 8.3991 153.704 8.56068C153.704 8.71889 153.65 8.85521 153.543 8.96966C153.438 9.08411 153.304 9.14134 153.139 9.14134Z" fill="#747474"></path><path d="M157.002 15.5033C156.255 15.5033 155.639 15.2458 155.154 14.7308C154.669 14.2158 154.427 13.5577 154.427 12.7566C154.427 11.9723 154.664 11.3226 155.139 10.8076C155.613 10.2892 156.211 10.03 156.931 10.03C157.675 10.03 158.271 10.2538 158.719 10.7015C159.166 11.1492 159.39 11.7063 159.39 12.3728V12.9282H154.927V12.2264H158.502C158.481 11.8191 158.33 11.4808 158.047 11.2115C157.764 10.9389 157.392 10.8025 156.931 10.8025C156.443 10.8025 156.046 10.9809 155.74 11.3377C155.433 11.6946 155.28 12.1675 155.28 12.7566C155.28 13.3557 155.449 13.8354 155.785 14.1956C156.125 14.5524 156.544 14.7308 157.042 14.7308C157.281 14.7308 157.485 14.6988 157.653 14.6349C157.822 14.5709 157.973 14.48 158.108 14.3622C158.246 14.2444 158.399 14.0542 158.567 13.7917L159.284 14.1451C159.102 14.512 158.901 14.7863 158.678 14.9681C158.46 15.1465 158.217 15.2795 157.951 15.367C157.685 15.4579 157.369 15.5033 157.002 15.5033Z" fill="#747474"></path><path d="M162.239 15.3468V10.1613H163.516V11.0701L163.4 10.9187H163.552C163.696 10.6494 163.919 10.4289 164.218 10.2572C164.521 10.0822 164.848 9.99465 165.198 9.99465C165.561 9.99465 165.884 10.0805 166.167 10.2522C166.453 10.4238 166.659 10.6611 166.783 10.9641C166.982 10.6376 167.234 10.3952 167.541 10.237C167.85 10.0754 168.189 9.99465 168.555 9.99465C169.165 9.99465 169.626 10.1731 169.939 10.5299C170.252 10.8833 170.409 11.3815 170.409 12.0244V15.3468H169.081V12.2617C169.081 11.878 169 11.5919 168.838 11.4034C168.68 11.2149 168.438 11.1206 168.111 11.1206C167.795 11.1206 167.529 11.2469 167.313 11.4993C167.101 11.7518 166.995 12.0665 166.995 12.4435V15.3468H165.657V12.2718C165.657 11.8847 165.576 11.5952 165.415 11.4034C165.253 11.2115 165.011 11.1156 164.688 11.1156C164.371 11.1156 164.107 11.2452 163.895 11.5044C163.683 11.7636 163.577 12.0817 163.577 12.4587V15.3468H162.239Z" fill="#747474"></path><path d="M172.956 15.5134C172.387 15.5134 171.928 15.3569 171.578 15.0439C171.231 14.7308 171.058 14.3218 171.058 13.8169C171.058 13.2884 171.261 12.8693 171.669 12.5596C172.079 12.2466 172.611 12.0901 173.264 12.0901C173.533 12.0901 173.791 12.1187 174.037 12.1759C174.282 12.2298 174.489 12.2988 174.658 12.3829V12.0749C174.658 11.7518 174.545 11.4943 174.319 11.3024C174.094 11.1105 173.796 11.0146 173.426 11.0146C173.21 11.0146 173.027 11.0382 172.875 11.0853C172.727 11.1324 172.589 11.1947 172.461 11.2721C172.337 11.3462 172.224 11.432 172.123 11.5296C172.022 11.6239 171.972 11.671 171.972 11.671L171.234 10.954C171.234 10.954 171.315 10.8833 171.477 10.7419C171.642 10.5972 171.823 10.4693 172.022 10.3582C172.221 10.2437 172.443 10.1545 172.689 10.0906C172.938 10.0266 173.222 9.99465 173.542 9.99465C174.296 9.99465 174.883 10.1781 175.304 10.545C175.728 10.9086 175.94 11.4219 175.94 12.085V15.3468H174.663V14.2057L174.996 14.6702H174.627C174.473 14.9193 174.247 15.123 173.951 15.2812C173.655 15.436 173.323 15.5134 172.956 15.5134ZM173.305 14.5793C173.692 14.5793 174.013 14.443 174.269 14.1703C174.525 13.8943 174.654 13.5426 174.658 13.1151V13.11C174.513 13.0259 174.343 12.9585 174.148 12.908C173.953 12.8542 173.744 12.8273 173.522 12.8273C173.162 12.8273 172.87 12.903 172.648 13.0545C172.429 13.2059 172.32 13.4348 172.32 13.7412C172.32 14.0004 172.411 14.2057 172.593 14.3572C172.774 14.5053 173.012 14.5793 173.305 14.5793Z" fill="#747474"></path><path d="M176.969 15.3468V10.1613H178.307V15.3468H176.969ZM177.641 9.28271C177.422 9.28271 177.235 9.20698 177.08 9.0555C176.929 8.90402 176.853 8.71889 176.853 8.50009C176.853 8.27792 176.929 8.09447 177.08 7.94972C177.235 7.80161 177.422 7.72756 177.641 7.72756C177.863 7.72756 178.048 7.80161 178.196 7.94972C178.344 8.09447 178.418 8.27792 178.418 8.50009C178.418 8.71889 178.344 8.90402 178.196 9.0555C178.048 9.20698 177.863 9.28271 177.641 9.28271Z" fill="#747474"></path><path d="M181.323 15.5134C180.966 15.5134 180.653 15.4747 180.384 15.3973C180.118 15.3199 179.879 15.2054 179.667 15.054C179.458 14.9025 179.288 14.7359 179.157 14.5541C179.029 14.3723 178.965 14.2814 178.965 14.2814L179.844 13.6503C179.844 13.6503 179.892 13.7159 179.99 13.8472C180.088 13.9751 180.204 14.0896 180.338 14.1905C180.476 14.2882 180.628 14.3622 180.793 14.4127C180.961 14.4632 181.158 14.4884 181.384 14.4884C181.663 14.4884 181.883 14.4396 182.045 14.342C182.207 14.241 182.287 14.0929 182.287 13.8977C182.287 13.7395 182.217 13.6132 182.075 13.519C181.934 13.4247 181.604 13.3187 181.086 13.2009C180.416 13.0494 179.931 12.8407 179.632 12.5748C179.335 12.3055 179.187 11.9672 179.187 11.5599C179.187 11.0886 179.387 10.71 179.788 10.4238C180.189 10.1377 180.688 9.99465 181.288 9.99465C181.594 9.99465 181.87 10.0266 182.116 10.0906C182.365 10.1545 182.587 10.2488 182.782 10.3733C182.977 10.4979 183.136 10.6325 183.257 10.7773C183.378 10.9187 183.439 10.9893 183.439 10.9893L182.59 11.6205C182.59 11.6205 182.548 11.5734 182.464 11.4791C182.38 11.3849 182.276 11.3007 182.151 11.2267C182.03 11.1526 181.895 11.0987 181.747 11.0651C181.599 11.0314 181.444 11.0146 181.283 11.0146C181.034 11.0146 180.832 11.0651 180.677 11.1661C180.522 11.2637 180.444 11.3815 180.444 11.5195C180.444 11.6676 180.51 11.7905 180.641 11.8881C180.776 11.9857 181.114 12.0985 181.656 12.2264C182.333 12.3779 182.818 12.5866 183.11 12.8525C183.407 13.1151 183.555 13.4433 183.555 13.8371C183.555 14.3386 183.349 14.7443 182.939 15.054C182.528 15.3603 181.989 15.5134 181.323 15.5134Z" fill="#747474"></path><path d="M188.369 15.5134C187.669 15.5134 187.088 15.261 186.627 14.7561C186.169 14.2478 185.94 13.5846 185.94 12.7667C185.94 11.9521 186.174 11.2872 186.642 10.7722C187.11 10.2572 187.702 9.9997 188.419 9.9997C188.766 9.9997 189.086 10.0754 189.379 10.2269C189.672 10.375 189.892 10.5703 190.04 10.8126H190.065V8.11635H191.393V15.3468H190.116V14.4682L190.247 14.6601L190.086 14.6652C189.927 14.9244 189.694 15.1314 189.384 15.2862C189.078 15.4377 188.739 15.5134 188.369 15.5134ZM188.672 14.3824C189.079 14.3824 189.419 14.2292 189.692 13.9229C189.968 13.6166 190.106 13.2278 190.106 12.7566C190.106 12.2786 189.966 11.8898 189.687 11.5902C189.411 11.2906 189.072 11.1408 188.672 11.1408C188.271 11.1408 187.931 11.2906 187.652 11.5902C187.376 11.8898 187.238 12.2786 187.238 12.7566C187.238 13.2312 187.376 13.6217 187.652 13.928C187.928 14.2309 188.268 14.3824 188.672 14.3824Z" fill="#747474"></path><path d="M194.805 15.5134C194.004 15.5134 193.356 15.2542 192.861 14.7359C192.366 14.2175 192.119 13.556 192.119 12.7515C192.119 11.9571 192.366 11.299 192.861 10.7773C193.356 10.2555 193.99 9.99465 194.765 9.99465C195.519 9.99465 196.133 10.2269 196.608 10.6914C197.086 11.156 197.325 11.7467 197.325 12.4637V13.0141H192.79V12.2516H196.057C196.037 11.9049 195.911 11.6222 195.679 11.4034C195.45 11.1812 195.145 11.0701 194.765 11.0701C194.354 11.0701 194.022 11.2182 193.77 11.5145C193.521 11.8073 193.396 12.2096 193.396 12.7212C193.396 13.2564 193.539 13.6823 193.825 13.9987C194.115 14.3117 194.485 14.4682 194.936 14.4682C195.145 14.4682 195.327 14.4396 195.482 14.3824C195.636 14.3252 195.776 14.2478 195.901 14.1501C196.029 14.0525 196.173 13.8943 196.335 13.6755L197.193 14.2612C196.974 14.5978 196.752 14.8486 196.527 15.0136C196.305 15.1785 196.059 15.303 195.79 15.3872C195.52 15.4714 195.192 15.5134 194.805 15.5134Z" fill="#747474"></path><path d="M41.618 27.3468V20.1163H44.3395C45.0194 20.1163 45.595 20.3267 46.0663 20.7475C46.5409 21.1649 46.7782 21.7119 46.7782 22.3885C46.7782 23.0449 46.5493 23.5835 46.0915 24.0042C45.6338 24.425 45.0312 24.6354 44.2839 24.6354H42.2138V23.6003H44.2233C44.5532 23.6003 44.8343 23.4926 45.0666 23.2771C45.3022 23.0584 45.42 22.7773 45.42 22.4339C45.42 22.1242 45.3072 21.8634 45.0817 21.6513C44.8595 21.4359 44.5886 21.3282 44.2688 21.3282H42.9711V27.3468H41.618ZM45.6321 27.3468L43.4963 24.08L44.9353 24.0244L47.2226 27.3468H45.6321Z" fill="#747474"></path><path d="M50.1235 27.3468C49.6825 27.3468 49.3038 27.2879 48.9874 27.1701C48.6744 27.0489 48.3984 26.8789 48.1594 26.6601C47.9204 26.4413 47.7403 26.2141 47.6191 25.9785C47.4979 25.7395 47.4373 25.62 47.4373 25.62L48.4825 25.004C48.4825 25.004 48.5279 25.0932 48.6188 25.2716C48.7097 25.45 48.8309 25.6149 48.9824 25.7664C49.1339 25.9179 49.3089 26.0357 49.5075 26.1199C49.7061 26.2006 49.9316 26.241 50.1841 26.241C50.5678 26.241 50.864 26.1535 51.0727 25.9785C51.2814 25.8034 51.3858 25.5813 51.3858 25.312C51.3858 25.0124 51.2512 24.7801 50.9819 24.6152C50.7159 24.4502 50.312 24.2819 49.7701 24.1103C49.043 23.8847 48.5195 23.6053 48.1997 23.2721C47.88 22.9355 47.7201 22.5265 47.7201 22.0451C47.7201 21.4931 47.9372 21.0336 48.3714 20.6667C48.809 20.2998 49.3914 20.1163 50.1184 20.1163C50.4988 20.1163 50.827 20.1601 51.103 20.2476C51.3791 20.3351 51.6265 20.4631 51.8453 20.6314C52.0641 20.7963 52.2307 20.9612 52.3451 21.1262C52.463 21.2911 52.5219 21.3736 52.5219 21.3736L51.5827 22.0502C51.5827 22.0502 51.5406 21.998 51.4565 21.8937C51.3757 21.786 51.268 21.6749 51.1333 21.5604C50.9987 21.446 50.8472 21.3601 50.6789 21.3029C50.514 21.2423 50.3187 21.212 50.0932 21.212C49.7398 21.212 49.4705 21.2844 49.2853 21.4291C49.1002 21.5739 49.0076 21.7557 49.0076 21.9745C49.0076 22.2404 49.1153 22.4508 49.3308 22.6056C49.5462 22.7571 49.9569 22.9271 50.5628 23.1156C51.3 23.3411 51.8369 23.6272 52.1735 23.9739C52.5135 24.3173 52.6834 24.7397 52.6834 25.2413C52.6834 25.8809 52.4495 26.3925 51.9816 26.7762C51.5137 27.1566 50.8943 27.3468 50.1235 27.3468ZM49.7701 23.3579V19.2782H50.6032V23.3579H49.7701ZM49.7701 28.185V23.7316H50.5981V28.185H49.7701Z" fill="#747474"></path><path d="M57.8863 27.5134C57.4487 27.5134 57.0717 27.4461 56.7553 27.3115C56.4389 27.1735 56.1696 26.9849 55.9474 26.746C55.7286 26.5036 55.5704 26.2562 55.4728 26.0037C55.3752 25.7513 55.3264 25.625 55.3264 25.625L56.5331 25.1656C56.5331 25.1656 56.5634 25.2413 56.624 25.3928C56.6846 25.5442 56.7721 25.694 56.8866 25.8421C57.001 25.9903 57.1374 26.103 57.2956 26.1804C57.4538 26.2579 57.6457 26.2966 57.8712 26.2966C58.2246 26.2966 58.5158 26.1804 58.7447 25.9482C58.9736 25.7125 59.088 25.4079 59.088 25.0343C59.088 24.6741 58.9753 24.3812 58.7497 24.1557C58.5242 23.9268 58.233 23.8124 57.8762 23.8124C57.6743 23.8124 57.4908 23.8477 57.3259 23.9184C57.1609 23.9857 56.9909 24.1305 56.8159 24.3526L55.6091 23.8629L56.0737 20.1163H59.9717V21.3181H57.0886L56.8512 23.156L56.8866 23.1711C57.0549 23.0264 57.2518 22.9153 57.4773 22.8379C57.7062 22.7604 57.957 22.7217 58.2297 22.7217C58.8625 22.7217 59.3876 22.9405 59.805 23.3781C60.2224 23.8124 60.4311 24.3678 60.4311 25.0444C60.4311 25.7479 60.1938 26.3353 59.7192 26.8065C59.2479 27.2778 58.637 27.5134 57.8863 27.5134Z" fill="#747474"></path><path d="M63.9361 27.5134C63.0642 27.5134 62.3691 27.165 61.8507 26.4682C61.3357 25.7715 61.0782 24.8575 61.0782 23.7265C61.0782 22.5989 61.3357 21.6883 61.8507 20.9949C62.3691 20.2981 63.0642 19.9497 63.9361 19.9497C64.8146 19.9497 65.5131 20.2981 66.0315 20.9949C66.5532 21.6883 66.8141 22.5989 66.8141 23.7265C66.8141 24.8575 66.5532 25.7715 66.0315 26.4682C65.5131 27.165 64.8146 27.5134 63.9361 27.5134ZM63.9411 26.2309C64.4292 26.2309 64.8028 26.0105 65.062 25.5695C65.3246 25.1285 65.4559 24.5142 65.4559 23.7265C65.4559 22.9422 65.3246 22.3313 65.062 21.8937C64.8028 21.4527 64.4292 21.2322 63.9411 21.2322C63.4598 21.2322 63.0878 21.4527 62.8252 21.8937C62.566 22.3313 62.4365 22.9422 62.4365 23.7265C62.4365 24.5108 62.566 25.1252 62.8252 25.5695C63.0878 26.0105 63.4598 26.2309 63.9411 26.2309Z" fill="#747474"></path><path d="M70.3415 27.5134C69.4696 27.5134 68.7745 27.165 68.2561 26.4682C67.7411 25.7715 67.4836 24.8575 67.4836 23.7265C67.4836 22.5989 67.7411 21.6883 68.2561 20.9949C68.7745 20.2981 69.4696 19.9497 70.3415 19.9497C71.22 19.9497 71.9185 20.2981 72.4369 20.9949C72.9586 21.6883 73.2195 22.5989 73.2195 23.7265C73.2195 24.8575 72.9586 25.7715 72.4369 26.4682C71.9185 27.165 71.22 27.5134 70.3415 27.5134ZM70.3465 26.2309C70.8346 26.2309 71.2082 26.0105 71.4674 25.5695C71.73 25.1285 71.8613 24.5142 71.8613 23.7265C71.8613 22.9422 71.73 22.3313 71.4674 21.8937C71.2082 21.4527 70.8346 21.2322 70.3465 21.2322C69.8651 21.2322 69.4932 21.4527 69.2306 21.8937C68.9714 22.3313 68.8418 22.9422 68.8418 23.7265C68.8418 24.5108 68.9714 25.1252 69.2306 25.5695C69.4932 26.0105 69.8651 26.2309 70.3465 26.2309Z" fill="#747474"></path><path d="M74.6105 27.4225C74.3681 27.4225 74.1628 27.3401 73.9945 27.1751C73.8262 27.0102 73.742 26.8065 73.742 26.5642C73.742 26.3252 73.8262 26.1232 73.9945 25.9583C74.1628 25.7933 74.3681 25.7109 74.6105 25.7109C74.8528 25.7109 75.0565 25.7933 75.2214 25.9583C75.3897 26.1232 75.4739 26.3252 75.4739 26.5642C75.4739 26.8065 75.3897 27.0102 75.2214 27.1751C75.0565 27.3401 74.8528 27.4225 74.6105 27.4225Z" fill="#747474"></path><path d="M78.8525 27.5134C77.9807 27.5134 77.2856 27.165 76.7672 26.4682C76.2522 25.7715 75.9947 24.8575 75.9947 23.7265C75.9947 22.5989 76.2522 21.6883 76.7672 20.9949C77.2856 20.2981 77.9807 19.9497 78.8525 19.9497C79.7311 19.9497 80.4295 20.2981 80.9479 20.9949C81.4697 21.6883 81.7306 22.5989 81.7306 23.7265C81.7306 24.8575 81.4697 25.7715 80.9479 26.4682C80.4295 27.165 79.7311 27.5134 78.8525 27.5134ZM78.8576 26.2309C79.3457 26.2309 79.7193 26.0105 79.9785 25.5695C80.241 25.1285 80.3723 24.5142 80.3723 23.7265C80.3723 22.9422 80.241 22.3313 79.9785 21.8937C79.7193 21.4527 79.3457 21.2322 78.8576 21.2322C78.3762 21.2322 78.0043 21.4527 77.7417 21.8937C77.4825 22.3313 77.3529 22.9422 77.3529 23.7265C77.3529 24.5108 77.4825 25.1252 77.7417 25.5695C78.0043 26.0105 78.3762 26.2309 78.8576 26.2309Z" fill="#747474"></path><path d="M85.2579 27.5134C84.3861 27.5134 83.691 27.165 83.1726 26.4682C82.6576 25.7715 82.4001 24.8575 82.4001 23.7265C82.4001 22.5989 82.6576 21.6883 83.1726 20.9949C83.691 20.2981 84.3861 19.9497 85.2579 19.9497C86.1365 19.9497 86.8349 20.2981 87.3533 20.9949C87.8751 21.6883 88.1359 22.5989 88.1359 23.7265C88.1359 24.8575 87.8751 25.7715 87.3533 26.4682C86.8349 27.165 86.1365 27.5134 85.2579 27.5134ZM85.263 26.2309C85.751 26.2309 86.1247 26.0105 86.3839 25.5695C86.6464 25.1285 86.7777 24.5142 86.7777 23.7265C86.7777 22.9422 86.6464 22.3313 86.3839 21.8937C86.1247 21.4527 85.751 21.2322 85.263 21.2322C84.7816 21.2322 84.4096 21.4527 84.1471 21.8937C83.8879 22.3313 83.7583 22.9422 83.7583 23.7265C83.7583 24.5108 83.8879 25.1252 84.1471 25.5695C84.4096 26.0105 84.7816 26.2309 85.263 26.2309Z" fill="#747474"></path><path d="M91.6633 27.5134C90.7915 27.5134 90.0963 27.165 89.578 26.4682C89.0629 25.7715 88.8054 24.8575 88.8054 23.7265C88.8054 22.5989 89.0629 21.6883 89.578 20.9949C90.0963 20.2981 90.7915 19.9497 91.6633 19.9497C92.5418 19.9497 93.2403 20.2981 93.7587 20.9949C94.2805 21.6883 94.5413 22.5989 94.5413 23.7265C94.5413 24.8575 94.2805 25.7715 93.7587 26.4682C93.2403 27.165 92.5418 27.5134 91.6633 27.5134ZM91.6683 26.2309C92.1564 26.2309 92.5301 26.0105 92.7893 25.5695C93.0518 25.1285 93.1831 24.5142 93.1831 23.7265C93.1831 22.9422 93.0518 22.3313 92.7893 21.8937C92.5301 21.4527 92.1564 21.2322 91.6683 21.2322C91.187 21.2322 90.815 21.4527 90.5525 21.8937C90.2933 22.3313 90.1637 22.9422 90.1637 23.7265C90.1637 24.5108 90.2933 25.1252 90.5525 25.5695C90.815 26.0105 91.187 26.2309 91.6683 26.2309Z" fill="#747474"></path><path d="M94.9025 28.1698L95.5488 27.266C95.4108 27.2189 95.2947 27.1331 95.2004 27.0085C95.1095 26.8806 95.0641 26.7308 95.0641 26.5591C95.0641 26.3269 95.1449 26.1299 95.3064 25.9684C95.4714 25.8034 95.6784 25.721 95.9275 25.721C96.1732 25.721 96.3769 25.8034 96.5385 25.9684C96.7034 26.1299 96.7859 26.3336 96.7859 26.5793C96.7859 26.7106 96.7623 26.8402 96.7152 26.9681C96.668 27.0927 96.5805 27.2441 96.4526 27.4225L95.5993 28.6546C95.5993 28.6546 95.367 28.493 94.9025 28.1698Z" fill="#747474"></path><path d="M100.164 27.5134C99.2927 27.5134 98.5976 27.165 98.0792 26.4682C97.5641 25.7715 97.3066 24.8575 97.3066 23.7265C97.3066 22.5989 97.5641 21.6883 98.0792 20.9949C98.5976 20.2981 99.2927 19.9497 100.164 19.9497C101.043 19.9497 101.742 20.2981 102.26 20.9949C102.782 21.6883 103.043 22.5989 103.043 23.7265C103.043 24.8575 102.782 25.7715 102.26 26.4682C101.742 27.165 101.043 27.5134 100.164 27.5134ZM100.17 26.2309C100.658 26.2309 101.031 26.0105 101.29 25.5695C101.553 25.1285 101.684 24.5142 101.684 23.7265C101.684 22.9422 101.553 22.3313 101.29 21.8937C101.031 21.4527 100.658 21.2322 100.17 21.2322C99.6882 21.2322 99.3162 21.4527 99.0537 21.8937C98.7945 22.3313 98.6649 22.9422 98.6649 23.7265C98.6649 24.5108 98.7945 25.1252 99.0537 25.5695C99.3162 26.0105 99.6882 26.2309 100.17 26.2309Z" fill="#747474"></path><path d="M106.57 27.5134C105.698 27.5134 105.003 27.165 104.485 26.4682C103.97 25.7715 103.712 24.8575 103.712 23.7265C103.712 22.5989 103.97 21.6883 104.485 20.9949C105.003 20.2981 105.698 19.9497 106.57 19.9497C107.448 19.9497 108.147 20.2981 108.665 20.9949C109.187 21.6883 109.448 22.5989 109.448 23.7265C109.448 24.8575 109.187 25.7715 108.665 26.4682C108.147 27.165 107.448 27.5134 106.57 27.5134ZM106.575 26.2309C107.063 26.2309 107.437 26.0105 107.696 25.5695C107.958 25.1285 108.09 24.5142 108.09 23.7265C108.09 22.9422 107.958 22.3313 107.696 21.8937C107.437 21.4527 107.063 21.2322 106.575 21.2322C106.094 21.2322 105.722 21.4527 105.459 21.8937C105.2 22.3313 105.07 22.9422 105.07 23.7265C105.07 24.5108 105.2 25.1252 105.459 25.5695C105.722 26.0105 106.094 26.2309 106.575 26.2309Z" fill="#747474"></path><path d="M112.336 27.3468V22.1613H113.613V23.1358L113.462 22.9691H113.644C113.745 22.6864 113.931 22.4541 114.204 22.2724C114.477 22.0872 114.766 21.9947 115.073 21.9947C115.163 21.9947 115.256 22.0031 115.35 22.0199C115.448 22.0334 115.535 22.0536 115.613 22.0805C115.69 22.1041 115.729 22.1158 115.729 22.1158V23.3933C115.729 23.3933 115.677 23.3765 115.572 23.3428C115.471 23.3058 115.36 23.2755 115.239 23.2519C115.121 23.2283 115.014 23.2166 114.916 23.2166C114.559 23.2166 114.263 23.3478 114.027 23.6104C113.792 23.873 113.674 24.2079 113.674 24.6152V27.3468H112.336Z" fill="#747474"></path><path d="M118.486 27.5134C117.685 27.5134 117.037 27.2542 116.542 26.7359C116.048 26.2175 115.8 25.556 115.8 24.7515C115.8 23.9571 116.048 23.299 116.542 22.7773C117.037 22.2555 117.672 21.9947 118.446 21.9947C119.2 21.9947 119.814 22.2269 120.289 22.6914C120.767 23.156 121.006 23.7467 121.006 24.4637V25.0141H116.472V24.2516H119.739C119.718 23.9049 119.592 23.6222 119.36 23.4034C119.131 23.1812 118.826 23.0701 118.446 23.0701C118.035 23.0701 117.704 23.2182 117.451 23.5145C117.202 23.8073 117.078 24.2096 117.078 24.7212C117.078 25.2564 117.221 25.6823 117.507 25.9987C117.796 26.3117 118.167 26.4682 118.618 26.4682C118.826 26.4682 119.008 26.4396 119.163 26.3824C119.318 26.3252 119.457 26.2478 119.582 26.1501C119.71 26.0525 119.855 25.8943 120.016 25.6755L120.875 26.2612C120.656 26.5978 120.434 26.8486 120.208 27.0136C119.986 27.1785 119.74 27.303 119.471 27.3872C119.202 27.4714 118.873 27.5134 118.486 27.5134Z" fill="#747474"></path><path d="M123.305 27.5134C122.736 27.5134 122.276 27.3569 121.926 27.0439C121.58 26.7308 121.406 26.3218 121.406 25.8169C121.406 25.2884 121.61 24.8693 122.017 24.5596C122.428 24.2466 122.96 24.0901 123.613 24.0901C123.882 24.0901 124.14 24.1187 124.385 24.1759C124.631 24.2298 124.838 24.2988 125.006 24.3829V24.0749C125.006 23.7518 124.894 23.4943 124.668 23.3024C124.443 23.1105 124.145 23.0146 123.774 23.0146C123.559 23.0146 123.375 23.0382 123.224 23.0853C123.076 23.1324 122.938 23.1947 122.81 23.2721C122.685 23.3462 122.573 23.432 122.472 23.5296C122.371 23.6239 122.32 23.671 122.32 23.671L121.583 22.954C121.583 22.954 121.664 22.8833 121.825 22.7419C121.99 22.5972 122.172 22.4693 122.371 22.3582C122.569 22.2437 122.791 22.1545 123.037 22.0906C123.286 22.0266 123.571 21.9947 123.89 21.9947C124.644 21.9947 125.232 22.1781 125.653 22.545C126.077 22.9086 126.289 23.4219 126.289 24.085V27.3468H125.011V26.2057L125.345 26.6702H124.976C124.821 26.9193 124.596 27.123 124.299 27.2812C124.003 27.436 123.672 27.5134 123.305 27.5134ZM123.653 26.5793C124.04 26.5793 124.362 26.443 124.618 26.1703C124.873 25.8943 125.003 25.5426 125.006 25.1151V25.11C124.862 25.0259 124.692 24.9585 124.496 24.908C124.301 24.8542 124.092 24.8273 123.87 24.8273C123.51 24.8273 123.219 24.903 122.997 25.0545C122.778 25.2059 122.669 25.4348 122.669 25.7412C122.669 26.0004 122.759 26.2057 122.941 26.3572C123.123 26.5053 123.36 26.5793 123.653 26.5793Z" fill="#747474"></path><path d="M127.318 27.3468V22.1613H128.656V27.3468H127.318ZM127.989 21.2827C127.77 21.2827 127.584 21.207 127.429 21.0555C127.277 20.904 127.202 20.7189 127.202 20.5001C127.202 20.2779 127.277 20.0945 127.429 19.9497C127.584 19.8016 127.77 19.7276 127.989 19.7276C128.211 19.7276 128.397 19.8016 128.545 19.9497C128.693 20.0945 128.767 20.2779 128.767 20.5001C128.767 20.7189 128.693 20.904 128.545 21.0555C128.397 21.207 128.211 21.2827 127.989 21.2827Z" fill="#747474"></path><path d="M131.672 27.5134C131.315 27.5134 131.002 27.4747 130.732 27.3973C130.467 27.3199 130.228 27.2054 130.015 27.054C129.807 26.9025 129.637 26.7359 129.505 26.5541C129.378 26.3723 129.314 26.2814 129.314 26.2814L130.192 25.6503C130.192 25.6503 130.241 25.7159 130.339 25.8472C130.436 25.9751 130.552 26.0896 130.687 26.1905C130.825 26.2882 130.976 26.3622 131.141 26.4127C131.31 26.4632 131.507 26.4884 131.732 26.4884C132.012 26.4884 132.232 26.4396 132.394 26.342C132.555 26.241 132.636 26.0929 132.636 25.8977C132.636 25.7395 132.565 25.6132 132.424 25.519C132.283 25.4247 131.953 25.3187 131.434 25.2009C130.764 25.0494 130.28 24.8407 129.98 24.5748C129.684 24.3055 129.536 23.9672 129.536 23.5599C129.536 23.0886 129.736 22.71 130.137 22.4238C130.537 22.1377 131.037 21.9947 131.636 21.9947C131.943 21.9947 132.219 22.0266 132.464 22.0906C132.713 22.1545 132.936 22.2488 133.131 22.3733C133.326 22.4979 133.484 22.6325 133.605 22.7773C133.727 22.9187 133.787 22.9893 133.787 22.9893L132.939 23.6205C132.939 23.6205 132.897 23.5734 132.813 23.4791C132.729 23.3849 132.624 23.3007 132.5 23.2267C132.378 23.1526 132.244 23.0987 132.096 23.0651C131.948 23.0314 131.793 23.0146 131.631 23.0146C131.382 23.0146 131.18 23.0651 131.025 23.1661C130.87 23.2637 130.793 23.3815 130.793 23.5195C130.793 23.6676 130.859 23.7905 130.99 23.8881C131.125 23.9857 131.463 24.0985 132.005 24.2264C132.681 24.3779 133.166 24.5866 133.459 24.8525C133.755 25.1151 133.903 25.4433 133.903 25.8371C133.903 26.3386 133.698 26.7443 133.287 27.054C132.877 27.3603 132.338 27.5134 131.672 27.5134Z" fill="#747474"></path><path d="M134.399 28.1597L134.969 27.3468C134.835 27.3199 134.722 27.2526 134.631 27.1448C134.54 27.0371 134.495 26.9092 134.495 26.7611C134.495 26.5861 134.557 26.438 134.681 26.3168C134.806 26.1922 134.959 26.1299 135.141 26.1299C135.323 26.1299 135.476 26.1922 135.6 26.3168C135.725 26.438 135.787 26.5861 135.787 26.7611C135.787 26.8554 135.767 26.953 135.727 27.054C135.686 27.1549 135.612 27.2862 135.504 27.4478L134.838 28.4475C134.838 28.4475 134.691 28.3516 134.399 28.1597Z" fill="#747474"></path><path d="M138.841 29.518V22.1916H139.654V23.2065L139.457 22.9641H139.679C139.841 22.6881 140.085 22.4642 140.411 22.2926C140.738 22.1175 141.088 22.03 141.462 22.03C142.162 22.03 142.749 22.2841 143.224 22.7924C143.698 23.3007 143.936 23.9571 143.936 24.7616C143.936 25.5527 143.7 26.2074 143.229 26.7258C142.758 27.2441 142.168 27.5033 141.462 27.5033C141.088 27.5033 140.74 27.4259 140.416 27.2711C140.097 27.1162 139.863 26.9042 139.715 26.6349L139.689 26.6399V29.518H138.841ZM141.371 26.7308C141.852 26.7308 142.258 26.5457 142.588 26.1754C142.917 25.8051 143.082 25.3339 143.082 24.7616C143.082 24.1793 142.916 23.708 142.583 23.3478C142.249 22.9843 141.845 22.8025 141.371 22.8025C140.893 22.8025 140.485 22.9843 140.149 23.3478C139.816 23.708 139.649 24.1793 139.649 24.7616C139.649 25.3339 139.816 25.8051 140.149 26.1754C140.482 26.5457 140.889 26.7308 141.371 26.7308Z" fill="#747474"></path><path d="M146.37 27.5033C145.798 27.5033 145.331 27.3418 144.971 27.0186C144.611 26.6955 144.431 26.2781 144.431 25.7664C144.431 25.248 144.633 24.8323 145.037 24.5193C145.444 24.2062 145.966 24.0497 146.602 24.0497C146.881 24.0497 147.158 24.0817 147.43 24.1456C147.706 24.2096 147.923 24.2887 148.082 24.3829V24.0699C148.082 23.6895 147.947 23.3815 147.678 23.1459C147.412 22.9102 147.07 22.7924 146.653 22.7924C146.434 22.7924 146.247 22.8194 146.092 22.8732C145.941 22.9237 145.813 22.9877 145.708 23.0651C145.607 23.1425 145.508 23.2334 145.41 23.3377C145.313 23.4421 145.264 23.4943 145.264 23.4943L144.618 23.0146C144.618 23.0146 144.682 22.9439 144.81 22.8025C144.941 22.6611 145.089 22.5332 145.254 22.4188C145.422 22.301 145.612 22.2067 145.825 22.136C146.04 22.0653 146.318 22.03 146.658 22.03C147.348 22.03 147.893 22.2134 148.294 22.5804C148.694 22.9473 148.894 23.4455 148.894 24.0749V27.3468H148.082V26.1047L148.379 26.5945H148.051C147.89 26.8671 147.656 27.0876 147.349 27.2559C147.046 27.4209 146.72 27.5033 146.37 27.5033ZM146.451 26.746C146.902 26.746 147.285 26.5861 147.602 26.2663C147.922 25.9465 148.082 25.5628 148.082 25.1151V25.11C147.913 24.9956 147.71 24.9064 147.471 24.8424C147.232 24.7784 146.984 24.7465 146.728 24.7465C146.287 24.7465 145.939 24.8323 145.683 25.004C145.427 25.1756 145.299 25.4332 145.299 25.7765C145.299 26.066 145.407 26.2999 145.623 26.4783C145.841 26.6567 146.117 26.746 146.451 26.746Z" fill="#747474"></path><path d="M149.916 27.3468V22.1916H150.729V23.1156L150.598 23.0196H150.754C150.855 22.7403 151.049 22.5063 151.335 22.3178C151.624 22.1259 151.924 22.03 152.234 22.03C152.318 22.03 152.407 22.0367 152.501 22.0502C152.596 22.0637 152.678 22.0822 152.749 22.1057C152.823 22.1259 152.86 22.136 152.86 22.136V23.0348C152.86 23.0348 152.809 23.0196 152.708 22.9893C152.607 22.9591 152.503 22.9372 152.395 22.9237C152.291 22.9102 152.209 22.9035 152.148 22.9035C151.768 22.9035 151.441 23.0533 151.168 23.3529C150.899 23.6525 150.764 24.016 150.764 24.4435V27.3468H149.916Z" fill="#747474"></path><path d="M154.95 27.5033C154.378 27.5033 153.911 27.3418 153.551 27.0186C153.191 26.6955 153.011 26.2781 153.011 25.7664C153.011 25.248 153.213 24.8323 153.617 24.5193C154.024 24.2062 154.546 24.0497 155.182 24.0497C155.462 24.0497 155.738 24.0817 156.01 24.1456C156.286 24.2096 156.503 24.2887 156.662 24.3829V24.0699C156.662 23.6895 156.527 23.3815 156.258 23.1459C155.992 22.9102 155.65 22.7924 155.233 22.7924C155.014 22.7924 154.827 22.8194 154.672 22.8732C154.521 22.9237 154.393 22.9877 154.288 23.0651C154.187 23.1425 154.088 23.2334 153.991 23.3377C153.893 23.4421 153.844 23.4943 153.844 23.4943L153.198 23.0146C153.198 23.0146 153.262 22.9439 153.39 22.8025C153.521 22.6611 153.669 22.5332 153.834 22.4188C154.002 22.301 154.193 22.2067 154.405 22.136C154.62 22.0653 154.898 22.03 155.238 22.03C155.928 22.03 156.473 22.2134 156.874 22.5804C157.274 22.9473 157.475 23.4455 157.475 24.0749V27.3468H156.662V26.1047L156.96 26.5945H156.631C156.47 26.8671 156.236 27.0876 155.929 27.2559C155.627 27.4209 155.3 27.5033 154.95 27.5033ZM155.031 26.746C155.482 26.746 155.866 26.5861 156.182 26.2663C156.502 25.9465 156.662 25.5628 156.662 25.1151V25.11C156.493 24.9956 156.29 24.9064 156.051 24.8424C155.812 24.7784 155.564 24.7465 155.308 24.7465C154.867 24.7465 154.519 24.8323 154.263 25.004C154.007 25.1756 153.879 25.4332 153.879 25.7765C153.879 26.066 153.987 26.2999 154.203 26.4783C154.421 26.6567 154.697 26.746 155.031 26.746Z" fill="#747474"></path><path d="M161.117 27.5033C160.743 27.5033 160.393 27.4175 160.067 27.2458C159.74 27.0742 159.496 26.852 159.334 26.5793H159.102L159.309 26.3269V27.3468H158.496V20.1163H159.345V22.9641L159.37 22.9691C159.531 22.6898 159.769 22.4642 160.082 22.2926C160.398 22.1175 160.743 22.03 161.117 22.03C161.817 22.03 162.404 22.2841 162.879 22.7924C163.354 23.2973 163.591 23.9504 163.591 24.7515C163.591 25.5493 163.355 26.2074 162.884 26.7258C162.413 27.2441 161.824 27.5033 161.117 27.5033ZM161.026 26.7308C161.507 26.7308 161.913 26.5457 162.243 26.1754C162.573 25.8051 162.738 25.3305 162.738 24.7515C162.738 24.1759 162.571 23.708 162.238 23.3478C161.904 22.9843 161.501 22.8025 161.026 22.8025C160.548 22.8025 160.141 22.9826 159.804 23.3428C159.471 23.703 159.304 24.1709 159.304 24.7465C159.304 25.3254 159.469 25.8018 159.799 26.1754C160.132 26.5457 160.541 26.7308 161.026 26.7308Z" fill="#747474"></path><path d="M166.676 27.5033C165.929 27.5033 165.313 27.2458 164.828 26.7308C164.344 26.2158 164.101 25.5577 164.101 24.7566C164.101 23.9723 164.339 23.3226 164.813 22.8076C165.288 22.2892 165.885 22.03 166.606 22.03C167.35 22.03 167.945 22.2538 168.393 22.7015C168.841 23.1492 169.065 23.7063 169.065 24.3728V24.9282H164.601V24.2264H168.176C168.156 23.8191 168.004 23.4808 167.722 23.2115C167.439 22.9389 167.067 22.8025 166.606 22.8025C166.118 22.8025 165.72 22.9809 165.414 23.3377C165.108 23.6946 164.955 24.1675 164.955 24.7566C164.955 25.3557 165.123 25.8354 165.46 26.1956C165.799 26.5524 166.219 26.7308 166.717 26.7308C166.956 26.7308 167.159 26.6988 167.328 26.6349C167.496 26.5709 167.648 26.48 167.782 26.3622C167.92 26.2444 168.073 26.0542 168.242 25.7917L168.959 26.1451C168.777 26.512 168.575 26.7863 168.353 26.9681C168.134 27.1465 167.892 27.2795 167.626 27.367C167.36 27.4579 167.043 27.5033 166.676 27.5033ZM166.202 21.3029L166.848 19.8891H167.767L166.939 21.3029H166.202Z" fill="#747474"></path><path d="M169.867 27.3468V22.1916H170.68V23.0954L170.544 22.949H170.705C170.857 22.6864 171.089 22.4676 171.402 22.2926C171.715 22.1175 172.043 22.03 172.387 22.03C172.993 22.03 173.462 22.2084 173.796 22.5652C174.129 22.9187 174.295 23.4101 174.295 24.0396V27.3468H173.442V24.1709C173.442 23.7232 173.334 23.3832 173.119 23.1509C172.903 22.9187 172.584 22.8025 172.16 22.8025C171.752 22.8025 171.409 22.9641 171.13 23.2872C170.854 23.6104 170.716 23.9958 170.716 24.4435V27.3468H169.867Z" fill="#747474"></path><path d="M177.109 27.5033C176.779 27.5033 176.486 27.4613 176.23 27.3771C175.977 27.2929 175.75 27.165 175.548 26.9934C175.35 26.8217 175.198 26.6349 175.094 26.4329C174.99 26.2276 174.937 26.1249 174.937 26.1249L175.7 25.7765C175.7 25.7765 175.744 25.8539 175.831 26.0088C175.919 26.1602 176.026 26.2932 176.154 26.4077C176.285 26.5221 176.43 26.6079 176.588 26.6652C176.747 26.7224 176.94 26.751 177.169 26.751C177.502 26.751 177.77 26.6854 177.972 26.5541C178.177 26.4194 178.28 26.2242 178.28 25.9684C178.28 25.763 178.197 25.5998 178.033 25.4786C177.871 25.3541 177.536 25.2346 177.028 25.1201C176.351 24.9653 175.863 24.7582 175.563 24.4991C175.267 24.2399 175.119 23.9049 175.119 23.4943C175.119 23.0735 175.308 22.7251 175.685 22.4491C176.065 22.1697 176.523 22.03 177.058 22.03C177.351 22.03 177.61 22.0637 177.836 22.131C178.061 22.1983 178.268 22.306 178.457 22.4541C178.649 22.5989 178.788 22.7503 178.876 22.9086C178.967 23.0634 179.012 23.1408 179.012 23.1408L178.27 23.4842C178.27 23.4842 178.231 23.4286 178.154 23.3175C178.08 23.2065 177.989 23.1105 177.881 23.0297C177.773 22.949 177.649 22.89 177.507 22.853C177.369 22.8126 177.213 22.7924 177.038 22.7924C176.728 22.7924 176.474 22.8614 176.275 22.9994C176.08 23.1341 175.983 23.2889 175.983 23.464C175.983 23.6558 176.055 23.8191 176.2 23.9537C176.348 24.085 176.705 24.2163 177.27 24.3476C177.967 24.5024 178.453 24.7111 178.729 24.9737C179.005 25.2329 179.143 25.5442 179.143 25.9078C179.143 26.3891 178.951 26.7762 178.568 27.0691C178.187 27.3586 177.701 27.5033 177.109 27.5033Z" fill="#747474"></path><path d="M181.924 29.518V22.1916H182.737V23.2065L182.54 22.9641H182.762C182.924 22.6881 183.168 22.4642 183.494 22.2926C183.821 22.1175 184.171 22.03 184.544 22.03C185.244 22.03 185.832 22.2841 186.307 22.7924C186.781 23.3007 187.018 23.9571 187.018 24.7616C187.018 25.5527 186.783 26.2074 186.312 26.7258C185.84 27.2441 185.251 27.5033 184.544 27.5033C184.171 27.5033 183.822 27.4259 183.499 27.2711C183.179 27.1162 182.945 26.9042 182.797 26.6349L182.772 26.6399V29.518H181.924ZM184.453 26.7308C184.935 26.7308 185.34 26.5457 185.67 26.1754C186 25.8051 186.165 25.3339 186.165 24.7616C186.165 24.1793 185.998 23.708 185.665 23.3478C185.332 22.9843 184.928 22.8025 184.453 22.8025C183.975 22.8025 183.568 22.9843 183.232 23.3478C182.898 23.708 182.732 24.1793 182.732 24.7616C182.732 25.3339 182.898 25.8051 183.232 26.1754C183.565 26.5457 183.972 26.7308 184.453 26.7308Z" fill="#747474"></path><path d="M190.104 27.5033C189.357 27.5033 188.741 27.2458 188.256 26.7308C187.771 26.2158 187.529 25.5577 187.529 24.7566C187.529 23.9723 187.766 23.3226 188.241 22.8076C188.715 22.2892 189.313 22.03 190.033 22.03C190.777 22.03 191.373 22.2538 191.821 22.7015C192.268 23.1492 192.492 23.7063 192.492 24.3728V24.9282H188.029V24.2264H191.604C191.583 23.8191 191.432 23.4808 191.149 23.2115C190.866 22.9389 190.494 22.8025 190.033 22.8025C189.545 22.8025 189.148 22.9809 188.842 23.3377C188.535 23.6946 188.382 24.1675 188.382 24.7566C188.382 25.3557 188.55 25.8354 188.887 26.1956C189.227 26.5524 189.646 26.7308 190.144 26.7308C190.383 26.7308 190.587 26.6988 190.755 26.6349C190.924 26.5709 191.075 26.48 191.21 26.3622C191.348 26.2444 191.501 26.0542 191.669 25.7917L192.386 26.1451C192.204 26.512 192.002 26.7863 191.78 26.9681C191.561 27.1465 191.319 27.2795 191.053 27.367C190.787 27.4579 190.471 27.5033 190.104 27.5033Z" fill="#747474"></path><path d="M193.295 27.3468V20.1163H194.143V27.3468H193.295Z" fill="#747474"></path><path d="M197.586 27.5033C196.825 27.5033 196.193 27.2425 195.688 26.7207C195.186 26.199 194.935 25.5459 194.935 24.7616C194.935 23.9672 195.188 23.3142 195.693 22.8025C196.198 22.2875 196.829 22.03 197.586 22.03C198.34 22.03 198.97 22.2892 199.475 22.8076C199.983 23.326 200.237 23.9773 200.237 24.7616C200.237 25.5459 199.986 26.199 199.485 26.7207C198.983 27.2425 198.35 27.5033 197.586 27.5033ZM197.586 26.7308C198.094 26.7308 198.52 26.5473 198.864 26.1804C199.21 25.8102 199.384 25.3372 199.384 24.7616C199.384 24.1759 199.209 23.7046 198.859 23.3478C198.512 22.9877 198.088 22.8076 197.586 22.8076C197.081 22.8076 196.654 22.9877 196.304 23.3478C195.957 23.708 195.784 24.1793 195.784 24.7616C195.784 25.3372 195.955 25.8102 196.299 26.1804C196.645 26.5473 197.075 26.7308 197.586 26.7308Z" fill="#747474"></path><path d="M203.093 27.3468V22.1916H203.906V23.1156L203.775 23.0196H203.931C204.032 22.7403 204.226 22.5063 204.512 22.3178C204.801 22.1259 205.101 22.03 205.411 22.03C205.495 22.03 205.584 22.0367 205.678 22.0502C205.772 22.0637 205.855 22.0822 205.926 22.1057C206 22.1259 206.037 22.136 206.037 22.136V23.0348C206.037 23.0348 205.986 23.0196 205.885 22.9893C205.784 22.9591 205.68 22.9372 205.572 22.9237C205.468 22.9102 205.385 22.9035 205.325 22.9035C204.944 22.9035 204.618 23.0533 204.345 23.3529C204.076 23.6525 203.941 24.016 203.941 24.4435V27.3468H203.093Z" fill="#747474"></path><path d="M208.689 27.5033C207.942 27.5033 207.326 27.2458 206.841 26.7308C206.357 26.2158 206.114 25.5577 206.114 24.7566C206.114 23.9723 206.352 23.3226 206.826 22.8076C207.301 22.2892 207.898 22.03 208.619 22.03C209.363 22.03 209.958 22.2538 210.406 22.7015C210.854 23.1492 211.078 23.7063 211.078 24.3728V24.9282H206.614V24.2264H210.189C210.169 23.8191 210.017 23.4808 209.734 23.2115C209.452 22.9389 209.08 22.8025 208.619 22.8025C208.131 22.8025 207.733 22.9809 207.427 23.3377C207.121 23.6946 206.968 24.1675 206.968 24.7566C206.968 25.3557 207.136 25.8354 207.472 26.1956C207.812 26.5524 208.232 26.7308 208.73 26.7308C208.969 26.7308 209.172 26.6988 209.341 26.6349C209.509 26.5709 209.66 26.48 209.795 26.3622C209.933 26.2444 210.086 26.0542 210.255 25.7917L210.972 26.1451C210.79 26.512 210.588 26.7863 210.366 26.9681C210.147 27.1465 209.904 27.2795 209.639 27.367C209.373 27.4579 209.056 27.5033 208.689 27.5033Z" fill="#747474"></path><path d="M213.673 27.5033C213.343 27.5033 213.05 27.4613 212.794 27.3771C212.542 27.2929 212.314 27.165 212.112 26.9934C211.914 26.8217 211.762 26.6349 211.658 26.4329C211.554 26.2276 211.501 26.1249 211.501 26.1249L212.264 25.7765C212.264 25.7765 212.308 25.8539 212.395 26.0088C212.483 26.1602 212.59 26.2932 212.718 26.4077C212.85 26.5221 212.994 26.6079 213.153 26.6652C213.311 26.7224 213.504 26.751 213.733 26.751C214.066 26.751 214.334 26.6854 214.536 26.5541C214.741 26.4194 214.844 26.2242 214.844 25.9684C214.844 25.763 214.762 25.5998 214.597 25.4786C214.435 25.3541 214.1 25.2346 213.592 25.1201C212.915 24.9653 212.427 24.7582 212.128 24.4991C211.831 24.2399 211.683 23.9049 211.683 23.4943C211.683 23.0735 211.872 22.7251 212.249 22.4491C212.629 22.1697 213.087 22.03 213.622 22.03C213.915 22.03 214.174 22.0637 214.4 22.131C214.625 22.1983 214.832 22.306 215.021 22.4541C215.213 22.5989 215.352 22.7503 215.44 22.9086C215.531 23.0634 215.576 23.1408 215.576 23.1408L214.834 23.4842C214.834 23.4842 214.795 23.4286 214.718 23.3175C214.644 23.2065 214.553 23.1105 214.445 23.0297C214.337 22.949 214.213 22.89 214.072 22.853C213.933 22.8126 213.777 22.7924 213.602 22.7924C213.292 22.7924 213.038 22.8614 212.84 22.9994C212.644 23.1341 212.547 23.2889 212.547 23.464C212.547 23.6558 212.619 23.8191 212.764 23.9537C212.912 24.085 213.269 24.2163 213.834 24.3476C214.531 24.5024 215.017 24.7111 215.293 24.9737C215.569 25.2329 215.707 25.5442 215.707 25.9078C215.707 26.3891 215.516 26.7762 215.132 27.0691C214.751 27.3586 214.265 27.5033 213.673 27.5033Z" fill="#747474"></path><path d="M218.285 27.5033C217.672 27.5033 217.201 27.3232 216.871 26.9631C216.541 26.6029 216.376 26.0946 216.376 25.4382V22.1916H217.23V25.3069C217.23 25.7715 217.336 26.1249 217.548 26.3673C217.76 26.6096 218.064 26.7308 218.462 26.7308C218.882 26.7308 219.236 26.5709 219.522 26.2511C219.808 25.9313 219.951 25.5476 219.951 25.0999V22.1916H220.799V27.3468H219.991V26.2107L220.375 26.5945H219.961C219.813 26.8604 219.582 27.0792 219.269 27.2509C218.956 27.4192 218.628 27.5033 218.285 27.5033Z" fill="#747474"></path><path d="M221.87 27.3468V20.1163H222.719V27.3468H221.87Z" fill="#747474"></path><path d="M225.702 27.5033C225.292 27.5033 224.959 27.3771 224.703 27.1246C224.447 26.8688 224.319 26.5204 224.319 26.0795V20.7424H225.167V25.8775C225.167 26.167 225.224 26.3807 225.339 26.5187C225.453 26.6534 225.623 26.7207 225.849 26.7207C225.903 26.7207 225.963 26.7157 226.031 26.7056C226.098 26.6921 226.184 26.6685 226.288 26.6349C226.396 26.6012 226.45 26.5844 226.45 26.5844V27.3721C226.45 27.3721 226.403 27.3855 226.308 27.4124C226.217 27.4427 226.125 27.4646 226.031 27.4781C225.936 27.4949 225.827 27.5033 225.702 27.5033ZM223.42 22.959V22.1916H226.435V22.959H223.42Z" fill="#747474"></path><path d="M228.892 27.5033C228.319 27.5033 227.853 27.3418 227.493 27.0186C227.133 26.6955 226.953 26.2781 226.953 25.7664C226.953 25.248 227.155 24.8323 227.559 24.5193C227.966 24.2062 228.488 24.0497 229.124 24.0497C229.403 24.0497 229.679 24.0817 229.952 24.1456C230.228 24.2096 230.445 24.2887 230.603 24.3829V24.0699C230.603 23.6895 230.469 23.3815 230.199 23.1459C229.933 22.9102 229.592 22.7924 229.174 22.7924C228.956 22.7924 228.769 22.8194 228.614 22.8732C228.462 22.9237 228.334 22.9877 228.23 23.0651C228.129 23.1425 228.03 23.2334 227.932 23.3377C227.835 23.4421 227.786 23.4943 227.786 23.4943L227.139 23.0146C227.139 23.0146 227.203 22.9439 227.331 22.8025C227.463 22.6611 227.611 22.5332 227.776 22.4188C227.944 22.301 228.134 22.2067 228.346 22.136C228.562 22.0653 228.839 22.03 229.179 22.03C229.869 22.03 230.415 22.2134 230.815 22.5804C231.216 22.9473 231.416 23.4455 231.416 24.0749V27.3468H230.603V26.1047L230.901 26.5945H230.573C230.411 26.8671 230.177 27.0876 229.871 27.2559C229.568 27.4209 229.242 27.5033 228.892 27.5033ZM228.972 26.746C229.423 26.746 229.807 26.5861 230.124 26.2663C230.443 25.9465 230.603 25.5628 230.603 25.1151V25.11C230.435 24.9956 230.231 24.9064 229.992 24.8424C229.753 24.7784 229.506 24.7465 229.25 24.7465C228.809 24.7465 228.461 24.8323 228.205 25.004C227.949 25.1756 227.821 25.4332 227.821 25.7765C227.821 26.066 227.929 26.2999 228.144 26.4783C228.363 26.6567 228.639 26.746 228.972 26.746Z" fill="#747474"></path><path d="M234.629 27.5033C233.922 27.5033 233.333 27.2458 232.862 26.7308C232.394 26.2158 232.16 25.5611 232.16 24.7667C232.16 23.9689 232.396 23.3159 232.867 22.8076C233.342 22.2959 233.931 22.0401 234.634 22.0401C235.008 22.0401 235.351 22.1276 235.664 22.3027C235.981 22.4743 236.22 22.6999 236.381 22.9792L236.402 22.9742V20.1163H237.255V27.3468H236.442V26.3976L236.538 26.5793L236.417 26.5844C236.248 26.8638 236.003 27.0876 235.679 27.2559C235.356 27.4209 235.006 27.5033 234.629 27.5033ZM234.725 26.7409C235.21 26.7409 235.617 26.5558 235.947 26.1855C236.277 25.8118 236.442 25.3372 236.442 24.7616C236.442 24.186 236.274 23.7181 235.937 23.3579C235.604 22.9944 235.2 22.8126 234.725 22.8126C234.247 22.8126 233.84 22.9944 233.503 23.3579C233.17 23.7181 233.003 24.1877 233.003 24.7667C233.003 25.3423 233.17 25.8152 233.503 26.1855C233.837 26.5558 234.244 26.7409 234.725 26.7409Z" fill="#747474"></path><path d="M240.694 27.5033C239.933 27.5033 239.3 27.2425 238.795 26.7207C238.294 26.199 238.043 25.5459 238.043 24.7616C238.043 23.9672 238.295 23.3142 238.8 22.8025C239.305 22.2875 239.936 22.03 240.694 22.03C241.448 22.03 242.077 22.2892 242.582 22.8076C243.09 23.326 243.345 23.9773 243.345 24.7616C243.345 25.5459 243.094 26.199 242.592 26.7207C242.091 27.2425 241.458 27.5033 240.694 27.5033ZM240.694 26.7308C241.202 26.7308 241.628 26.5473 241.971 26.1804C242.318 25.8102 242.491 25.3372 242.491 24.7616C242.491 24.1759 242.316 23.7046 241.966 23.3478C241.619 22.9877 241.195 22.8076 240.694 22.8076C240.189 22.8076 239.761 22.9877 239.411 23.3478C239.065 23.708 238.891 24.1793 238.891 24.7616C238.891 25.3372 239.063 25.8102 239.406 26.1804C239.753 26.5473 240.182 26.7308 240.694 26.7308Z" fill="#747474"></path><path d="M244.567 27.4074C244.385 27.4074 244.232 27.3451 244.107 27.2206C243.986 27.096 243.925 26.9429 243.925 26.7611C243.925 26.5861 243.986 26.438 244.107 26.3168C244.232 26.1922 244.385 26.1299 244.567 26.1299C244.748 26.1299 244.901 26.1922 245.026 26.3168C245.151 26.438 245.213 26.5861 245.213 26.7611C245.213 26.9429 245.151 27.096 245.026 27.2206C244.901 27.3451 244.748 27.4074 244.567 27.4074Z" fill="#747474"></path><rect y="1.63281" width="32.0702" height="31.6884" rx="6.87218" fill="#454545"></rect><path d="M8.46196 20.4131L13.7488 11.7015C14.4204 12.082 17.8068 13.8859 18.3537 14.2289L13.0668 22.9411C12.4886 23.6762 7.72944 21.5289 8.46196 20.4126V20.4131Z" fill="#FBBC04"></path><path d="M23.652 20.4129L18.3651 11.7018C17.626 10.518 16.0341 10.0877 14.7267 10.787C13.4193 11.4862 13.0212 12.9925 13.7603 14.2292L19.0471 22.9414C19.7862 24.1248 21.3781 24.555 22.6856 23.8557C23.9359 23.1565 24.3911 21.5968 23.652 20.414V20.4129Z" fill="#4285F4"></path><path d="M10.7496 24.1925C12.2153 24.1925 13.4034 23.0772 13.4034 21.7015C13.4034 20.3258 12.2153 19.2106 10.7496 19.2106C9.28388 19.2106 8.0957 20.3258 8.0957 21.7015C8.0957 23.0772 9.28388 24.1925 10.7496 24.1925Z" fill="#34A853"></path></svg>